<?xml version="1.0" encoding="utf-8"?>
<!-- Generator: Adobe Illustrator 19.2.1, SVG Export Plug-In . SVG Version: 6.00 Build 0)  -->
<svg version="1.1" id="Layer_1" xmlns="http://www.w3.org/2000/svg" xmlns:xlink="http://www.w3.org/1999/xlink" x="0px" y="0px"
	 width="392px" height="46.3px" viewBox="0 0 392 46.3" enable-background="new 0 0 392 46.3" xml:space="preserve">
<g>
	<g>
		<g>
			<path fill="#1E1E1E" d="M37.5,19.7c2.7-2.2,5-5,7.6-8.8c1.5-2.2,2.4-4.1,2.4-4.9c0-0.5-0.1-0.8-0.7-1.2c-0.5-0.4-0.5-0.4-0.9-0.6
				C45.5,4,45.5,4,45.3,3.8c0.3-0.2,0.5-0.2,0.7-0.2c0.8,0,2,0.4,3,1c1.2,0.6,1.7,1.3,1.7,1.8c0,0.4,0,0.5-1.9,3.3
				c0.5,0.1,0.7,0.1,0.9,0.1c0.7,0,2.5-0.3,4.3-0.7c1.5-0.4,2.1-0.6,2.8-1c0.3-0.2,0.4-0.2,0.6-0.2c0.9,0,2.9,1.9,2.9,2.7
				c0,0.3-0.1,0.5-0.5,0.9C59.1,12,59,12.3,58,14.1c-3.2,5.9-6.2,9.9-10.6,13.5c-3.1,2.6-5.8,4.3-8.9,5.6l-0.3-0.5
				c2.9-1.8,5-3.5,8-6.4c4.4-4.3,7.7-9.2,9.8-14.3c0.4-0.8,0.6-1.5,0.6-1.8c0-0.1-0.1-0.3-0.3-0.3c-0.5,0-2.8,0.6-4.6,1.2
				c-0.6,0.2-0.9,0.3-1.2,0.3c-0.8,0-1.5-0.4-2.2-1c-2.8,4-6.4,7.5-10.4,9.9L37.5,19.7z"/>
			<path fill="#1E1E1E" d="M71.2,11.5c3-0.8,6.4-2.2,9-3.5c1.4-0.7,3.1-1.7,3.9-2.4c0.3-0.2,0.4-0.4,0.4-0.6c0-0.4-0.5-0.9-1.6-1.4
				c0.3-0.2,0.4-0.2,0.6-0.2c1.6,0,4.5,1.8,4.5,2.8c0,0.4-0.2,0.6-1.5,1.2c-0.9,0.4-2.9,1.2-5.2,2.1c2,0.8,3.1,1.7,3.1,2.4
				c0,0.1,0,0.4-0.1,0.9c0,0.4-0.1,1.2-0.2,2.4c5.9-0.5,6.3-0.6,7.1-0.9c0.3-0.1,0.6-0.2,0.9-0.2c1.4,0,3.6,1.3,3.6,2.2
				c0,0.4-0.3,0.7-0.8,0.7c-0.3,0-0.3,0-1.2-0.1c-1.6-0.3-3-0.4-5.3-0.4c-0.2,0-1.6,0-4.5,0.1c-0.5,4.4-1.5,7.8-3.4,10.8
				c-1.5,2.5-3.6,4.7-5.9,6.3l-0.4-0.4c4.2-4.1,6.6-9.5,7.2-16.4c-3.7,0.5-7.5,1.4-9.5,2.3c-0.4,0.1-0.6,0.2-0.9,0.2
				c-1.4,0-3.5-2.3-3.5-3.7c0-0.1,0-0.2,0.1-0.4c1,1.3,1.7,1.6,3.1,1.6c0.6,0,1.5-0.1,4.7-0.6c2.4-0.4,4.2-0.6,6-0.9
				c0.1-1,0.1-1.5,0.1-2.2c0-2.1-0.3-2.8-1.4-3.4c-3.2,1.1-5.9,1.8-8.9,2.1L71.2,11.5z"/>
			<path fill="#1E1E1E" d="M106.6,11.2c0.6,0.4,1.1,0.6,2.1,0.6c0.7,0,1.4,0,2.5-0.2c9.8-1.2,9.8-1.2,10.7-1.5
				c0.3-0.1,0.5-0.2,0.7-0.2c0.4,0,1.2,0.5,2.1,1.3c0.9,0.8,1.3,1.3,1.3,1.7c0,0.3-0.1,0.4-0.4,0.6c-0.6,0.6-0.8,1.2-2.6,10.8
				c0.1,0.1,0.3,0.2,0.3,0.3c1,0.8,1.3,1.2,1.3,1.7c0,0.4-0.3,0.6-0.8,0.6c-0.2,0-0.2,0-0.9-0.1c-0.9-0.2-2-0.3-3.2-0.3
				c-4.2,0-9.5,0.9-11.6,1.8c-0.2,0.1-0.5,0.2-0.7,0.2c-1.2,0-3.3-2.7-3.3-4.2c0-0.2,0-0.3,0.2-0.6c1.2,1.6,2.1,2.2,3.3,2.2
				c0.4,0,1.2-0.1,1.9-0.1c1.2-0.1,2.9-0.3,5.1-0.5c3.1-0.3,3.2-0.3,6.2-0.5c0.4-1.7,0.6-3.2,1-6.6c0.2-1.5,0.5-5,0.5-5.4
				c0-0.5-0.3-0.6-1-0.6c-0.6,0-3.3,0.3-4.8,0.4c-2.6,0.4-4.9,0.9-7.4,1.7c-0.2,0.1-0.4,0.1-0.7,0.1c-0.7,0-1.5-0.6-2.4-1.9
				c-0.5-0.8-0.9-1.7-0.9-2.2c0-0.1,0-0.3,0.2-0.6C105.5,10.3,105.9,10.8,106.6,11.2z"/>
			<path fill="#1E1E1E" d="M137.1,22.7c0.8,1.5,1.6,2.2,3.3,2.9c1.6,0.7,3.4,1.2,6.6,1.8c1.7,0.3,3.2,0.5,3.8,0.5c0,0,0.1,0,0.1,0
				c0.2,0,0.3,0,0.4,0c0.8,0,1.4,0.3,2.2,1.2c0.7,0.8,1.1,1.7,1.1,2.2c0,0.5-0.3,0.8-0.8,0.8c-0.3,0-0.5-0.1-1-0.3
				c-0.8-0.3-1.3-0.5-6.8-2.2c-3.3-1.1-5-1.8-6.3-2.6c-1.5-1-2.4-2.2-2.9-4.2L137.1,22.7z M138.7,4.5c1.6,1.5,2.8,2.2,5.4,2.8
				c1.6,0.4,3.4,0.6,4.8,0.6c0.3,0,0.6,0,1-0.1c0.1,0,0.1,0,0.2,0c0.2,0,0.5,0.2,0.9,0.5c0.9,0.7,1.4,1.6,1.4,2.1
				c0,0.5-0.3,0.8-0.9,0.8c-0.8,0-4-0.8-6.4-1.5c-3.7-1.2-5.3-2.4-6.8-4.9L138.7,4.5z M139.5,13.5c0.8,1.2,1.6,1.8,3,2.3
				c1.7,0.6,4.1,1.2,5.4,1.2c0.1,0,0.5,0,0.6,0c0.2,0,0.2,0,0.4,0c0.4,0,0.6,0.1,1.2,0.6c0.8,0.8,1.2,1.5,1.2,1.9
				c0,0.4-0.4,0.8-0.9,0.8c-0.6,0-2.9-0.6-4.7-1.3c-4.1-1.5-5.7-2.8-6.5-5.4L139.5,13.5z"/>
			<path fill="#1E1E1E" d="M163.3,15.4c0.4,0.4,0.7,0.5,1.3,0.5c0.8,0,1.5-0.1,7.8-1.7c1-0.3,2.6-0.6,4.5-1c2-0.4,2.9-0.6,3.8-0.9
				c0.6-0.2,0.8-0.2,1-0.2c0.3,0,1,0.3,1.5,0.6c0.6,0.3,0.8,0.7,0.8,1.1c0,0.4-0.3,0.7-0.9,0.7c-0.1,0-0.3,0-0.5,0
				c-0.3-0.1-0.5-0.1-0.8-0.1c-4.8,0-9.4,4.6-9.4,9.4c0,2.5,1.3,4.5,3.7,5.5c0.9,0.4,2,0.6,2.8,0.7c0.6,0,0.8,0.1,1.2,0.4
				c0.5,0.5,0.8,1,0.8,1.3c0,0.4-0.4,0.8-1,0.8c-1.6,0-4.1-0.9-5.7-2c-2.1-1.5-3.2-3.7-3.2-6.3c0-2.3,1.1-4.8,3.1-6.8
				c1.1-1.2,2.2-2,4.6-3.2c-3.5,0.4-9.9,2.3-12.5,3.8c-0.6,0.3-0.8,0.4-1.1,0.4c-0.7,0-1.5-0.6-2.2-1.7c-0.4-0.7-0.7-1.4-0.7-1.9
				c0-0.2,0.1-0.4,0.3-0.8C162.7,14.7,162.9,15,163.3,15.4z M180,17.9c1,0.6,1.8,1.1,2.5,1.7c1,0.9,1.4,1.6,1.4,2.2
				s-0.4,1.2-0.9,1.2c-0.4,0-0.4,0-1.2-1.8c-0.5-1-1.4-2.2-2.2-3L180,17.9z M182.8,16.3c1,0.4,1.8,1,2.7,1.6
				c1.1,0.8,1.4,1.4,1.4,2.2c0,0.7-0.3,1.1-0.7,1.1c-0.3,0-0.4-0.1-0.6-0.5c-1-1.8-1.5-2.5-3.1-4L182.8,16.3z"/>
			<path fill="#1E1E1E" d="M210.7,12.8c0.7-0.9,1-1.2,1.7-2.1c1.2,1,1.6,1.3,2.8,2.4c0,0.1,0.1,0.1,0.1,0.2c0,0.1-0.1,0.2-0.3,0.2
				h-20.3c0,6.2-0.3,9.2-1.1,12.6c-0.7,3-1.8,5.4-3.9,8l-0.3-0.3c1.1-2,1.8-3.8,2.3-6.2c0.7-3,0.9-6.4,0.9-13c0-1.5,0-2-0.1-3.2
				c1.1,0.7,1.4,0.9,2.4,1.6h7.2v-2c0-1.1,0-1.5-0.1-2.3c2.9,0.3,3.4,0.4,3.4,0.8c0,0.3-0.4,0.5-1.2,0.6v2.9H210.7z M206.3,21.8
				c1.3,1.1,1.8,1.7,3.6,3.7c2.9,3.3,3.5,4.3,3.5,5.5c0,0.7-0.3,1.5-0.7,2.1c-0.2,0.3-0.4,0.4-0.7,0.4c-0.2,0-0.4-0.1-0.5-0.3
				c0-0.1-0.1-0.1-0.2-0.8c-0.1-0.4-0.5-1.5-0.9-2.5c-3.8,1-8.5,2-14.6,2.8c-0.1,1-0.2,1.1-0.4,1.1c-0.3,0-0.3,0-1.3-3.4
				c0.5,0,0.9,0,1.1,0c0.6,0,0.9,0,1.8-0.1c1-1.9,1.7-3.7,2.9-7c0.7-1.9,1.5-4.4,1.9-6.2c0.2-0.8,0.3-1.1,0.4-1.9
				c2.5,0.5,3.3,0.8,3.3,1.1c0,0.3-0.3,0.4-1.4,0.5c-1.5,4.3-3.7,9-6.3,13.4c4.1-0.2,4.1-0.2,7-0.4c2.6-0.2,3.8-0.4,5.3-0.7
				c-1-2.3-2.6-5-4.2-7.2L206.3,21.8z"/>
			<path fill="#1E1E1E" d="M225.8,28c2.1,1.2,3.8,1.9,4.3,1.9c0.6,0,1.1-0.6,1.8-2.4c1-2.3,1.7-5.4,1.7-7.5c0-1.2-0.3-1.9-0.8-2.3
				c-0.3-0.2-0.6-0.3-1.3-0.3c-0.8,0-1.3,0.1-2.9,0.6c-0.4,1-0.4,1-1.6,3.8c-0.1,0.3-0.7,1.7-1.7,3.9c-1.1,2.6-2,4.6-2.5,5.4
				c-0.2,0.4-0.4,0.5-0.7,0.5c-0.5,0-0.8-0.7-0.8-1.9c0-0.7,0.1-0.9,0.6-1.6c1.3-1.5,2.5-3.8,5.2-9.7c-1.9,0.6-3.1,1.1-3.6,1.5
				c-0.4,0.3-0.6,0.3-0.8,0.3c-0.3,0-0.9-0.4-1.2-0.8c-0.5-0.6-0.9-1.6-0.9-2.1c0-0.1,0.1-0.3,0.2-0.6c0.6,1.1,1.1,1.5,2.1,1.5
				c0.6,0,2.7-0.4,4.8-1c0.6-1.6,1.1-3.6,1.1-4.6c0-0.9-0.6-1.4-2.2-1.9c0.3-0.3,0.5-0.3,0.8-0.3c0.4,0,1.1,0.1,1.9,0.4
				c1.3,0.4,2,0.9,2,1.5c0,0.2-0.1,0.3-0.4,0.8c-0.5,0.9-1,1.8-1.8,3.8c1.2-0.3,1.7-0.3,2.4-0.3c2.4,0,3.6,1.4,3.6,4.4
				c0,3.6-1.4,8.2-3.1,10c-0.7,0.7-1.8,1.3-2.7,1.3c-0.5,0-0.7-0.2-0.8-0.6c-0.1-0.7-0.2-0.9-3.1-3.3L225.8,28z M238.1,16.7
				c2.2,0.6,3.9,1.8,5.1,3.4c1.1,1.4,1.6,2.7,1.6,3.9c0,1-0.4,1.5-1.1,1.5c-0.2,0-0.3,0-0.6-0.2c-0.5-0.3-0.6-0.3-1.1-0.3
				c-1,0-1.1,0-3.5,0.3l-0.1-0.4c2.8-0.8,3.5-1.1,4.3-1.4c-0.3-2.7-2.2-5.3-4.7-6.4L238.1,16.7z M239.1,11.1c1,0.6,1.8,1.1,2.5,1.7
				c1,0.9,1.4,1.5,1.4,2.2s-0.4,1.2-0.9,1.2c-0.4,0-0.4,0-1.2-1.8c-0.5-1-1.4-2.2-2.2-2.9L239.1,11.1z M242,9.5
				c1,0.4,1.8,0.9,2.7,1.6c1.1,0.8,1.4,1.4,1.4,2.2c0,0.7-0.3,1.1-0.7,1.1c-0.3,0-0.4-0.1-0.6-0.5c-1-1.8-1.5-2.5-3.1-4L242,9.5z"/>
			<path fill="#1E1E1E" d="M263.2,11.6c-1.1,0.3-3.7,1.4-5.7,2.2c-0.6,0.3-0.9,0.4-1.1,0.4c-0.5,0-1.1-0.4-1.6-1.2
				c-0.5-0.8-0.8-1.5-0.8-2.1c0-0.3,0.1-0.4,0.3-0.7c0.4,1.3,1.2,2,2.1,2c0.7,0,3.4-0.6,5.3-1.2c1.1-0.4,1.1-0.4,1.7-0.9
				c0.1-0.1,0.3-0.1,0.4-0.1c0.4,0,0.8,0.3,1.5,1c0.6,0.6,0.8,0.9,0.8,1.3c0,0.2-0.1,0.4-0.5,0.5c-0.8,0.4-1.1,0.6-2.3,1.9
				c-1.8,1.8-2.8,2.8-4.1,4.2c-2.7,2.9-2.7,2.9-3.3,3.5l0.1,0.1c3-1.9,5.3-2.7,7.6-2.7c3.6,0,6,2.1,6,5.2c0,4-3.7,7-8.8,7
				c-2.7,0-4.5-1.1-4.5-2.8c0-1.4,1.3-2.4,3-2.4c1.4,0,2.6,0.5,3.6,1.4c0.5,0.5,0.8,0.9,1.2,1.7c2.1-0.9,3.4-2.9,3.4-5.2
				c0-1.5-0.6-2.8-1.7-3.5c-0.6-0.3-1.7-0.6-2.8-0.6c-2.7,0-6.6,2.2-8.9,5.2c-0.5,0.6-0.7,0.8-1,0.8c-0.4,0-0.9-1-0.9-1.8
				c0-0.3,0.2-0.6,0.6-1c1.1-0.8,1.5-1.3,3.9-3.9c3.4-3.8,4.5-5.1,6.7-7.9c0.2-0.3,0.2-0.3,0.3-0.4c0,0-0.1-0.1-0.1-0.1c0,0,0,0,0,0
				c0,0,0,0-0.1,0c0,0-0.1,0-0.1,0.1L263.2,11.6z M258.9,27.6c-1.1,0-1.8,0.6-1.8,1.4c0,1,1.2,1.7,3.2,1.7c0.8,0,1.1-0.1,2-0.3
				C261.7,28.7,260.5,27.6,258.9,27.6z"/>
			<path fill="#DC1A5A" d="M283.8,26c0,3.5,0.2,3.8,3.2,3.9v0.9h-9.5v-0.9c2.7-0.1,2.9-0.3,2.9-3.9V8.1c0-3.5-0.2-3.8-2.9-3.9V3.3
				h10.4c2.7,0,5,0.4,6.4,1c2.5,1.2,3.8,3.4,3.8,6.6c0,3.6-1.5,6-4.6,7.1c-1.6,0.6-4.3,0.9-7.3,0.9h-2.5V26z M286.5,17.8
				c3,0,5-0.5,6.2-1.6c1.1-1,1.7-2.8,1.7-5.1c0-4.4-2.4-6.6-7.2-6.6h-3.4v13.3H286.5z"/>
			<path fill="#DC1A5A" d="M308.9,11.2c-0.1,2.2-0.2,5.5-0.2,7.1v7.8c0,3.5,0.2,3.8,2.7,3.9v0.8h-8.7V30c2.6-0.1,2.8-0.4,2.8-3.9V16
				c0-1.9-0.2-2.8-0.6-3.1c-0.3-0.3-0.9-0.3-2.2-0.3v-0.8L308.9,11.2z M307,3.2c1.2,0,2.1,0.9,2.1,2.1c0,1.2-1,2.2-2.1,2.2
				c-1.2,0-2.2-0.9-2.2-2.2C304.8,4.1,305.7,3.2,307,3.2z"/>
			<path fill="#DC1A5A" d="M333.4,26c-1.6,3.5-4.2,5.4-7.8,5.4c-5.4,0-9.1-4-9.1-9.8c0-6.2,3.8-10.4,9.3-10.4c2.2,0,4.3,0.7,5.6,1.9
				c1,0.9,1.6,2.1,1.6,3c0,0.7-0.7,1.2-1.9,1.2c-0.5,0-1-0.2-1.3-0.4c-0.2-0.2-0.2-0.3-0.3-1.3c-0.2-2.1-1.8-3.5-4-3.5
				c-3.5,0-5.5,3.2-5.5,8.7c0,5.8,2.4,9.3,6.3,9.3c2.7,0,4.8-1.6,6.1-4.6L333.4,26z"/>
			<path fill="#DC1A5A" d="M340,13.7c1.6-1.6,4-2.5,6.6-2.5c5.5,0,9.2,3.9,9.2,9.9c0,6.3-3.6,10.3-9.4,10.3c-5.5,0-9.2-3.9-9.2-9.8
				C337.2,18.4,338.3,15.5,340,13.7z M346.5,30.4c3.7,0,5.8-3.2,5.8-9.1c0-5.9-2.1-9.3-5.9-9.3c-3.6,0-5.7,3.2-5.7,9
				C340.8,27,342.9,30.4,346.5,30.4z"/>
		</g>
	</g>
	<line fill="none" stroke="#1E1E1E" stroke-width="2" stroke-miterlimit="10" x1="365.5" y1="44.4" x2="389.5" y2="2.4"/>
	<line fill="none" stroke="#1E1E1E" stroke-width="2" stroke-miterlimit="10" x1="26.5" y1="44.4" x2="2.5" y2="2.4"/>
</g>
</svg>
