<?xml version="1.0" encoding="utf-8"?>
<!-- Generator: Adobe Illustrator 19.2.1, SVG Export Plug-In . SVG Version: 6.00 Build 0)  -->
<svg version="1.1" id="Layer_1" xmlns="http://www.w3.org/2000/svg" xmlns:xlink="http://www.w3.org/1999/xlink" x="0px" y="0px"
	 width="550px" height="151.6px" viewBox="0 0 550 151.6" enable-background="new 0 0 550 151.6" xml:space="preserve">
<g>
	<g>
		<path fill="#74706F" d="M64.5,130.9l0.6,0.7l-7.1,7.1l7.1,7.1l-0.6,0.7l-7.1-7l-7.1,7l-0.7-0.7l7.1-7.1l-7.1-7.1l0.7-0.7l7.1,7.1
			L64.5,130.9z M53.2,138.7c0,0.9-0.7,1.5-1.5,1.5c-0.8,0-1.5-0.7-1.5-1.5s0.7-1.5,1.5-1.5C52.5,137.2,53.2,137.8,53.2,138.7z
			 M58.9,144.5c0,0.8-0.7,1.5-1.5,1.5c-0.8,0-1.5-0.7-1.5-1.5c0-0.8,0.7-1.5,1.4-1.5c0,0,0,0,0.1,0c0,0,0,0,0,0c0,0,0,0,0,0
			C58.2,143,58.9,143.7,58.9,144.5z M58.9,132.9c0,0.9-0.7,1.5-1.5,1.5c-0.8,0-1.5-0.7-1.5-1.5s0.7-1.5,1.5-1.5
			C58.2,131.4,58.9,132,58.9,132.9z M64.6,138.7c0,0.8-0.7,1.5-1.5,1.5c-0.8,0-1.5-0.7-1.5-1.5s0.7-1.5,1.5-1.5
			C63.9,137.2,64.6,137.9,64.6,138.7z"/>
		<path fill="#74706F" d="M72,138.6c-1.1,0-1.6,0-2.3,0.1v-1.5c0.7,0.1,1.1,0.1,2.3,0.1h4.1v-4.2h-3c-1.2,0-1.7,0-2.3,0.1v-1.5
			c0.7,0.1,1.1,0.1,2.3,0.1h9.2c1.3,0,1.7,0,2.3-0.1v1.5c-0.6-0.1-1.1-0.1-2.3-0.1h-4.8v4.2h6.1c1.2,0,1.6,0,2.3-0.1v1.5
			c-0.7-0.1-1.2-0.1-2.3-0.1h-6.1v3.9c0,1.3,0.1,1.6,0.5,1.9c0.4,0.3,1.3,0.4,2.6,0.4c0.8,0,1.9-0.1,3-0.2c0.8-0.1,1.1-0.1,1.7-0.3
			v1.6c-0.1,0-0.2,0-0.2,0c-0.2,0-0.2,0-1.5,0.1c-0.7,0.1-2.2,0.1-3.1,0.1c-3.5,0-4.4-0.6-4.4-3.1v-4.4H72z"/>
		<path fill="#74706F" d="M89.9,142.6c0.7,0.1,1.1,0.1,2.3,0.1h11.3c1.2,0,1.6,0,2.3-0.1v1.7c-0.7-0.1-1.2-0.1-2.3-0.1H92.2
			c-1.1,0-1.6,0-2.3,0.1V142.6z M92,133.1c0.7,0.1,1.1,0.1,2.1,0.1h7.6c1,0,1.5,0,2.1-0.1v1.6c-0.6-0.1-1.1-0.1-2.1-0.1h-7.7
			c-1,0-1.5,0-2.1,0.1V133.1z"/>
		<path fill="#74706F" d="M117.6,130.2c-0.3,0.4-0.3,0.4-0.7,1.3c-0.2,0.4-0.4,0.7-0.6,1.1c0.3,0,0.3,0,6.2-0.1
			c0.5,0,0.9-0.1,1.2-0.2l0.9,0.9c-0.2,0.3-0.2,0.4-0.6,1.3c-1.4,3.7-3.1,6.6-5.2,8.6c-1.7,1.6-3.7,2.9-6.3,4.1
			c-0.3-0.6-0.5-0.8-1-1.2c1.7-0.7,2.8-1.2,4.1-2.2c1.6-1.1,2.5-1.9,3.5-3.2c-1.4-1.3-2.9-2.3-4.5-3.2l0.9-1c1.7,1,2.8,1.8,4.4,3.1
			c1.2-1.8,2.1-3.7,2.8-5.8l-7,0.1c-1.4,2.2-2.8,3.7-4.8,5.3c-0.5-0.5-0.6-0.7-1.2-1c2.2-1.6,3.8-3.4,5.1-5.7c0.6-1.2,1-2,1.2-2.7
			L117.6,130.2z"/>
		<path fill="#74706F" d="M129.8,137.8c0.6,0.1,1.1,0.1,2.5,0.1h11.6c1.5,0,1.8,0,2.4-0.1v1.6c-0.6-0.1-1.1-0.1-2.4-0.1h-11.6
			c-1.5,0-1.9,0-2.5,0.1V137.8z"/>
		<path fill="#74706F" d="M151.2,133.1c0.5,0.1,0.8,0.1,1.6,0.1h3.2c0.8,0,1.2,0,1.6-0.1v1.3c-0.4-0.1-0.7-0.1-1.5-0.1h-3.4
			c-0.7,0-1.1,0-1.6,0.1V133.1z M151.8,147.7c0.1-0.6,0.1-1.3,0.1-1.9v-2.7c0-0.6,0-1.1-0.1-1.6c0.3,0.1,0.6,0.1,1.3,0.1h2.7l0.5,0
			h0.3c0.1,0,0.2,0,0.4,0c0,0.3-0.1,0.6-0.1,1.5v2.3c0,0.6,0,1,0,1.2c-0.2,0-0.6,0-1.1,0H153v1.2H151.8z M151.9,136
			c0.4,0.1,0.7,0.1,1.4,0.1h2.6c0.6,0,0.9,0,1.3-0.1v1.2c-0.4-0.1-0.7-0.1-1.3-0.1h-2.6c-0.6,0-1,0-1.4,0.1V136z M151.9,138.7
			c0.4,0.1,0.7,0.1,1.4,0.1h2.5c0.7,0,1,0,1.3-0.1v1.2c-0.4-0.1-0.7-0.1-1.3-0.1h-2.6c-0.6,0-1,0-1.3,0.1V138.7z M151.9,130.4
			c0.4,0.1,0.7,0.1,1.4,0.1h2.4c0.7,0,1,0,1.4-0.1v1.3c-0.4-0.1-0.9-0.1-1.4-0.1h-2.4c-0.6,0-1,0-1.4,0.1V130.4z M153,145.5h2.9
			v-2.9H153V145.5z M168.5,146c0,0.6-0.2,1-0.5,1.3c-0.3,0.2-0.8,0.3-1.6,0.3c-0.4,0-0.7,0-1.9-0.1c0-0.5-0.1-0.7-0.3-1.3
			c1,0.2,1.6,0.2,2.4,0.2c0.6,0,0.7-0.1,0.7-0.6v-14.2h-7.5v2.3c0,4.4-0.2,7.9-0.5,9.9c-0.2,1.6-0.6,2.9-1.3,4
			c-0.3-0.5-0.5-0.6-1-0.9c0.7-1.2,0.9-2.1,1.2-3.8c0.3-2.1,0.4-5.4,0.4-9.5c0-1.9,0-2.4-0.1-3.2c0.5,0.1,1,0.1,1.9,0.1h6.2
			c1,0,1.4,0,1.9-0.1c-0.1,0.5-0.1,1-0.1,2V146z M161.9,134.9c-0.6,0-1,0-1.4,0.1v-1.2c0.5,0.1,0.9,0.1,1.4,0.1h1v-0.3
			c0-0.7,0-1.1-0.1-1.6h1.3c-0.1,0.4-0.1,0.8-0.1,1.6v0.3h1c0.6,0,1,0,1.5-0.1v1.2c-0.4-0.1-0.8-0.1-1.5-0.1h-1v2.1h1.3
			c0.7,0,1,0,1.4-0.1v1.2c-0.4-0.1-0.7-0.1-1.4-0.1h-3.7c-0.6,0-0.9,0-1.4,0.1V137c0.4,0.1,0.8,0.1,1.4,0.1h1.3v-2.1H161.9z
			 M165.9,143.4c0,0.5,0,0.8,0.1,1.1c-0.1,0-0.1,0-0.1,0c0,0-0.1,0-0.3,0c0,0-0.1,0-0.1,0c-0.1,0-0.1,0-0.9-0.1H162v1.3h-1.2
			c0.1-0.4,0.1-0.8,0.1-1.5v-3.4c0-0.5,0-0.9-0.1-1.3c0.4,0,0.8,0.1,1.4,0.1h2.3c0.7,0,1.1,0,1.4-0.1c0,0.4-0.1,0.7-0.1,1.2V143.4z
			 M162,143.4h2.8v-2.9H162V143.4z"/>
		<path fill="#74706F" d="M181.3,131.3c0-0.7,0-1.1-0.1-1.6h1.5c-0.1,0.5-0.1,0.9-0.1,1.6v0.5h6.1c0.9,0,1.5,0,2-0.1v1.3
			c-0.6-0.1-1.2-0.1-2-0.1h-5c2,2.1,4.5,3.5,7.8,4.3c-0.3,0.4-0.4,0.6-0.7,1.3c-1.9-0.6-3.1-1.2-4.4-2c-1.6-1-2.7-1.9-3.8-3.3
			c0,0.6,0.1,1,0.1,1.3v1c0,0.5,0,0.9,0.1,1.3h-1.4c0.1-0.4,0.1-0.8,0.1-1.3v-1c0-0.4,0-0.8,0-1.2c-1.8,2.2-4.4,4-7.7,5.2
			c-0.2-0.5-0.4-0.8-0.8-1.1c2.8-0.9,5.6-2.5,7.3-4.4h-4.7c-0.8,0-1.4,0-2,0.1v-1.3c0.5,0.1,1.2,0.1,2.1,0.1h5.7V131.3z
			 M176.6,139.2c0-0.8,0-1.4-0.1-2c0.5,0,1.2,0.1,2.1,0.1h6.7c0.9,0,1.6,0,2.2-0.1c0,0.6-0.1,1.3-0.1,2.2v6.5h1.4c1,0,1.5,0,2.1-0.1
			v1.4c-0.6-0.1-1.2-0.1-2.1-0.1h-13.5c-0.9,0-1.5,0-2.1,0.1v-1.4c0.5,0.1,1.1,0.1,2.1,0.1h1.3V139.2z M177.8,140.1h8.4v-1.8h-8.4
			V140.1z M177.8,142.9h8.4v-1.8h-8.4V142.9z M177.8,145.9h8.4V144h-8.4V145.9z"/>
		<path fill="#74706F" d="M198.9,130.9c-0.3,0.9-0.5,1.8-0.8,3.2c-0.4,2.1-0.6,3.9-0.6,6.3c0,1.6,0,2.7,0.1,3.8
			c0.3-1.3,0.7-2.4,1.3-3.9l1,0.5c-0.9,2-1.6,4.4-1.6,5.5c0,0.1,0,0.2,0,0.3l-1.4,0.1c0-0.3-0.1-0.4-0.1-0.8
			c-0.4-2.1-0.5-3.6-0.5-5.7c0-2.8,0.2-5,0.9-7.9c0.2-0.9,0.2-1.1,0.3-1.6L198.9,130.9z M204,139c-1,1.1-1.5,2.1-1.5,2.9
			c0,1.5,1.3,2.2,3.8,2.2c1.8,0,3.5-0.3,4.6-0.7l0.2,1.5c-0.3,0-0.3,0-0.7,0.1c-1.4,0.3-2.7,0.4-4.1,0.4c-2.3,0-3.7-0.5-4.6-1.5
			c-0.4-0.5-0.6-1.1-0.6-1.8c0-1.2,0.5-2.3,1.7-3.7L204,139z M201.5,133c0.9,0.2,1.8,0.3,3.4,0.3c2.2,0,4-0.2,5.4-0.5l0.1,1.4
			c0,0-0.5,0.1-1.4,0.2c-1.2,0.2-2.8,0.3-4.3,0.3c-1.1,0-1.9-0.1-3.2-0.2L201.5,133z"/>
		<path fill="#74706F" d="M223.6,130.2c-0.1,0.5-0.1,1.1-0.1,2.6c0,0.4,0,0.7,0,2.1c2.2,0,4.8-0.3,5.9-0.8l0.2,1.5
			c-0.3,0-0.3,0-1.2,0.1c-1.8,0.3-3.2,0.4-4.8,0.4c0.1,1.9,0.2,3.9,0.3,5.2c1.6,0.5,3.3,1.3,5.3,2.8c0.4,0.3,0.4,0.3,0.9,0.6
			l-0.9,1.4c-0.4-0.5-1-1-2.1-1.7c-0.9-0.6-2-1.2-2.7-1.5c-0.3-0.1-0.3-0.1-0.5-0.2c0,0.2,0.1,0.6,0.1,0.9c0,0.8-0.2,1.6-0.5,2
			c-0.6,0.9-1.9,1.4-3.6,1.4c-2.6,0-4.2-1.1-4.2-3c0-1.9,1.9-3.2,4.7-3.2c0.6,0,1.3,0.1,1.7,0.2c0.1,0,0.1,0,0.2,0c0,0,0,0,0.1,0
			c0-0.1,0-0.1,0-0.2c0,0,0-0.1,0-0.1c-0.2-2.3-0.3-6.2-0.3-9c0-1,0-1.1-0.1-1.6H223.6z M220.4,142.1c-2,0-3.3,0.7-3.3,1.9
			c0,0.3,0.1,0.7,0.3,0.9c0.4,0.5,1.3,0.8,2.4,0.8c1,0,1.7-0.2,2.2-0.7c0.3-0.3,0.5-0.7,0.5-1.5c0-0.3,0-1.1-0.1-1.1
			C221.7,142.2,221.2,142.1,220.4,142.1z"/>
		<path fill="#74706F" d="M236.7,131.4c0.6,0.1,0.9,0.1,1.9,0.1c1.7,0,4.3-0.1,6.1-0.3c0.5,0,0.7-0.1,1-0.2l0.8,1.1
			c-0.3,0.1-0.4,0.2-1,0.8c-2.8,2.7-5.2,4.8-6.6,5.7l0,0.1c1.5-0.8,3.1-1.2,4.9-1.2c3.3,0,5.5,1.6,5.5,4.2c0,3.1-2.9,5.2-7.3,5.2
			c-2.8,0-4.4-1-4.4-2.9c0-1.3,1.2-2.3,2.9-2.3c1.3,0,2.5,0.6,3.3,1.6c0.4,0.6,0.6,1,0.9,1.9c2.1-0.6,3.2-1.8,3.2-3.5
			c0-1.9-1.6-3.1-4.3-3.1c-2.9,0-6.1,1.3-8.4,3.4l-0.9-1.3c0.7-0.4,1.4-0.9,2.8-2c2.1-1.7,5.3-4.5,6.7-5.8c0.1-0.1,0.1-0.1,0.3-0.3
			c0,0,0,0,0.1-0.1l0.1-0.1l0,0c-0.1,0-0.1,0-0.2,0c-0.6,0.1-3,0.3-6.1,0.4c-0.4,0-0.6,0-1.1,0.1L236.7,131.4z M240.5,142.8
			c-1,0-1.6,0.5-1.6,1.2c0,0.5,0.3,0.9,0.8,1.2c0.5,0.3,1.4,0.5,2.2,0.5c0.5,0,0.7,0,1.5-0.1C242.9,143.7,241.9,142.8,240.5,142.8z"
			/>
		<path fill="#74706F" d="M262.1,135c-0.1,0.4-0.1,0.4-0.1,1.4c-0.1,3.3-0.6,5.3-2,7c-1.2,1.5-2.7,2.5-5.1,3.5
			c-0.3-0.6-0.4-0.8-0.9-1.3c1.6-0.5,2.6-1,3.7-1.8c2.1-1.7,2.9-3.7,2.9-7.6c0-0.6,0-0.7-0.1-1.1H262.1z M270,132.5
			c-0.2,0.3-0.2,0.3-0.5,0.8c-1.4,2.7-3.2,4.5-5.8,5.7c-0.3-0.5-0.5-0.7-1-1.1c1.4-0.5,2.2-1,3.2-1.9c0.9-0.9,1.7-1.8,2.2-3h-11.4
			c-1.1,0-1.6,0-2.4,0.1v-1.5c0.7,0.1,1.2,0.1,2.4,0.1h10.7c1.3,0,1.3,0,1.7-0.1L270,132.5z"/>
		<path fill="#74706F" d="M274.4,144.6c1.6-0.1,4-0.7,5.8-1.5c3.9-1.7,6.5-4.7,8.2-8.9c0.5,0.6,0.7,0.8,1.2,1.2
			c-1.6,3.5-3.5,5.8-6.1,7.6c-2.1,1.4-4.1,2.2-7.5,3c-0.5,0.1-0.7,0.2-1.2,0.3L274.4,144.6z M275.7,132.1c2.1,1.4,3.4,2.3,4.8,3.8
			l-1,1.2c-1.4-1.6-3-2.9-4.8-3.9L275.7,132.1z"/>
		<path fill="#74706F" d="M305,135.3c-0.2,2.9-0.4,4.1-1.1,5.6c-0.7,1.6-1.9,3-3.4,4.2c-0.8,0.6-1.6,1.1-3.1,1.8
			c-0.3-0.6-0.5-0.9-1-1.3c1.7-0.7,3-1.4,4.2-2.6c1.8-1.8,2.7-4,2.9-7.7H298c-1.1,1.8-2,2.9-3.5,4.2c-0.4-0.5-0.5-0.6-1.2-0.9
			c1.8-1.5,3.2-3.2,4.3-5.5c0.6-1.3,0.9-2,1-2.8l1.5,0.5c-0.2,0.4-0.2,0.5-0.5,1.1c-0.5,1.1-0.8,1.8-1,2.2c0.3,0,0.3,0,9.3,0
			c1.3,0,1.6,0,2.5-0.1v1.5c-0.5,0-0.5,0-2.5-0.1H305z"/>
		<path fill="#74706F" d="M314.9,137.8c0.6,0.1,1.1,0.1,2.5,0.1H329c1.5,0,1.8,0,2.4-0.1v1.6c-0.6-0.1-1.1-0.1-2.4-0.1h-11.6
			c-1.5,0-1.9,0-2.5,0.1V137.8z"/>
		<path fill="#74706F" d="M338.9,146.9c0.1-0.5,0.1-1,0.1-2.1v-12.4c0-1.1,0-1.5-0.1-2h1.7c-0.1,0.5-0.1,0.9-0.1,2.1v3.7
			c3.1,1.1,5.4,2.2,8.9,4.2l-0.9,1.5c-1.9-1.3-4.6-2.8-7.5-4c-0.3-0.1-0.4-0.2-0.6-0.3l0,0c0.1,0.4,0.1,0.7,0.1,1.2v6
			c0,1.1,0,1.6,0.1,2.1H338.9z"/>
		<path fill="#74706F" d="M364.1,139.3h5.2c0.9,0,1.3,0,1.8-0.1v1.2c-0.5-0.1-1-0.1-1.8-0.1h-5.5v1.5h6c1.1,0,1.7,0,2.2-0.1v1.3
			c-0.7-0.1-1.3-0.1-2.2-0.1h-5c1.9,1.6,4.5,2.8,7.5,3.5c-0.4,0.5-0.5,0.7-0.8,1.2c-3.5-1-5.8-2.3-7.8-4.3c0.1,0.7,0.1,1,0.1,1.5
			v1.6c0,0.9,0,1.1,0.1,1.5h-1.5c0.1-0.4,0.1-0.8,0.1-1.5v-1.6c0-0.1,0-0.3,0-0.5c0-0.2,0-0.3,0-0.4c0-0.3,0-0.3,0-0.6
			c-1.2,1.3-2.3,2.1-3.9,2.8c-1.1,0.6-2.4,1-3.8,1.4c-0.2-0.5-0.4-0.8-0.8-1.2c2-0.4,3.3-0.8,4.9-1.6c1.1-0.6,1.8-1.1,2.6-1.8h-4.9
			c-0.9,0-1.5,0-2.2,0.1v-1.3c0.5,0.1,1.1,0.1,2.2,0.1h6v-1.5h-4.4c-0.7,0-1,0-1.4,0c0-0.3,0.1-0.8,0.1-1.3v-3.4c0-0.7,0-1.3,0.1-2
			c-0.7,0.8-1.2,1.3-2.2,2.1c-0.2-0.4-0.4-0.6-0.8-1c1.6-1.1,2.8-2.3,3.9-4c0.3-0.5,0.6-1,0.7-1.4l1.4,0.3c-1,1.5-1,1.5-1.3,1.9h4.3
			c0.6-0.9,0.9-1.4,1.2-2.2l1.3,0.3c-0.5,0.9-0.9,1.5-1.2,1.9h5.1c0.9,0,1.3,0,1.8-0.1v1.2c-0.5-0.1-0.9-0.1-1.7-0.1h-5.3v1.5h4.3
			c0.8,0,1.2,0,1.8-0.1v1.2c-0.5-0.1-0.9-0.1-1.8-0.1h-4.3v1.5h4.3c0.8,0,1.2,0,1.8-0.1v1.2c-0.5-0.1-0.9-0.1-1.8-0.1h-4.3V139.3z
			 M362.9,132.6h-4.8v1.5h4.8V132.6z M362.9,135.1h-4.8v1.5h4.8V135.1z M358.1,137.6v1.7h4.8v-1.7H358.1z"/>
		<path fill="#74706F" d="M376.4,133.2c0.5,0.1,1,0.1,1.7,0.1h4.8c0.8,0,1.3,0,1.7-0.1v1.3c-0.5-0.1-1-0.1-1.7-0.1h-4.8
			c-0.7,0-1.2,0-1.7,0.1V133.2z M377.4,130.5c0.5,0.1,0.9,0.1,1.6,0.1h3.3c0.7,0,1.1,0,1.6-0.1v1.3c-0.5-0.1-0.9-0.1-1.6-0.1H379
			c-0.7,0-1.2,0-1.6,0.1V130.5z M377.4,136c0.4,0.1,0.7,0.1,1.4,0.1h3.6c0.7,0,1,0,1.4-0.1v1.2c-0.5-0.1-0.8-0.1-1.4-0.1h-3.6
			c-0.7,0-1,0-1.4,0.1V136z M377.4,138.8c0.4,0.1,0.7,0.1,1.4,0.1h3.6c0.7,0,1,0,1.4-0.1v1.2c-0.5-0.1-0.7-0.1-1.4-0.1h-3.6
			c-0.7,0-1,0-1.4,0.1V138.8z M378.8,147.8h-1.3c0.1-0.6,0.1-1.2,0.1-1.9v-2.7c0-0.7,0-1.1-0.1-1.6c0.4,0.1,0.8,0.1,1.4,0.1h3.7
			c0.6,0,1,0,1.4-0.1c-0.1,0.5-0.1,0.8-0.1,1.6v2.6c0,0.7,0,1.2,0.1,1.7h-1.3v-0.8h-3.8V147.8z M378.8,145.7h3.8v-3h-3.8V145.7z
			 M388.8,132c0-0.9,0-1.5-0.1-2.2h1.6c-0.1,0.6-0.1,1.4-0.1,2.2v4h1.9c1.1,0,1.7,0,2.4-0.1v1.4c-0.7-0.1-1.4-0.1-2.4-0.1h-1.9v7.6
			c0,1.3,0,2.1,0.2,2.9h-1.6c0.1-0.8,0.1-1.4,0.1-2.9v-7.6H387c-0.9,0-1.6,0-2.3,0.1v-1.4c0.6,0.1,1.3,0.1,2.3,0.1h1.8V132z"/>
		<path fill="#74706F" d="M402.5,149.5c-1.2-1.8-1.6-2.7-2.1-4.2c-0.5-1.6-0.8-3.3-0.8-5.2s0.3-3.6,0.8-5.2c0.5-1.4,1-2.4,2.1-4.2
			l1.3,0.8c-1.1,1.7-1.6,2.6-2,4c-0.5,1.4-0.7,2.9-0.7,4.5c0,1.6,0.2,3.1,0.7,4.5c0.4,1.4,0.9,2.3,2,4L402.5,149.5z"/>
		<path fill="#74706F" d="M413.5,132.2c0.5-1,0.8-1.7,1.1-2.8l1.4,0.3c-0.4,1.1-0.7,1.8-1.1,2.5h4.8c1.1,0,1.7,0,2.4-0.1
			c-0.1,0.7-0.1,1.2-0.1,2.5v10.6c0,1.2,0,1.8,0.1,2.3h-1.4v-1.2h-10.6v1.2h-1.4c0.1-0.6,0.1-1.2,0.1-2.3v-10.6c0-1.2,0-1.8-0.1-2.5
			c0.7,0.1,1.3,0.1,2.4,0.1H413.5z M410.2,136.5h10.6v-3.1h-10.6V136.5z M410.2,140.8h10.6v-3.2h-10.6V140.8z M410.2,145.2h10.6V142
			h-10.6V145.2z"/>
		<path fill="#74706F" d="M432,145.9c0,0.8,0,1.4,0.1,2h-1.5c0.1-0.6,0.1-1.1,0.1-2v-6.2c-1,1-1.5,1.4-2.8,2.4
			c-0.2-0.5-0.4-0.7-0.7-1.1c1.4-0.9,2.5-1.8,3.6-3c1-1.1,1.7-2.1,2.5-3.7h-3.7c-0.6,0-1,0-1.6,0.1v-1.3c0.5,0.1,1,0.1,1.6,0.1h1.2
			v-1.9c0-0.6,0-1.1-0.1-1.5h1.5c-0.1,0.4-0.1,0.9-0.1,1.6v1.8h1.2c0.6,0,0.9,0,1.2-0.1l0.6,0.7c-0.1,0.2-0.3,0.4-0.5,0.9
			c-0.6,1.2-1.3,2.2-2.2,3.4c1,1.2,1.8,1.9,3.2,2.7c-0.3,0.4-0.5,0.7-0.7,1.1c-1.3-0.9-2-1.5-2.8-2.5V145.9z M438.9,131.5
			c0-0.7,0-1.1-0.1-1.8h1.6c-0.1,0.7-0.1,1.1-0.1,1.8v4.3h2.6c0.9,0,1.4,0,2-0.1v1.4c-0.6-0.1-1.3-0.1-2-0.1h-2.6v8.5h3.2
			c1,0,1.6,0,2.2-0.1v1.5c-0.7-0.1-1.3-0.1-2.2-0.1h-7.2c-0.9,0-1.5,0-2.1,0.1v-1.5c0.5,0.1,1.1,0.1,2.2,0.1h2.7V137h-2
			c-0.7,0-1.3,0-2,0.1v-1.4c0.5,0.1,1.1,0.1,2,0.1h2V131.5z"/>
		<path fill="#74706F" d="M449.7,133.1c0.5,0.1,0.8,0.1,1.6,0.1h3.2c0.8,0,1.2,0,1.6-0.1v1.3c-0.4-0.1-0.7-0.1-1.5-0.1h-3.4
			c-0.7,0-1.1,0-1.6,0.1V133.1z M450.3,147.7c0.1-0.6,0.1-1.3,0.1-1.9v-2.7c0-0.6,0-1.1-0.1-1.6c0.3,0.1,0.6,0.1,1.3,0.1h2.7l0.5,0
			h0.3c0.1,0,0.2,0,0.4,0c0,0.3-0.1,0.6-0.1,1.5v2.3c0,0.6,0,1,0,1.2c-0.2,0-0.6,0-1.1,0h-2.9v1.2H450.3z M450.3,136
			c0.4,0.1,0.7,0.1,1.4,0.1h2.6c0.6,0,0.9,0,1.3-0.1v1.2c-0.4-0.1-0.7-0.1-1.3-0.1h-2.6c-0.6,0-1,0-1.4,0.1V136z M450.3,138.7
			c0.4,0.1,0.7,0.1,1.4,0.1h2.5c0.7,0,1,0,1.3-0.1v1.2c-0.4-0.1-0.7-0.1-1.3-0.1h-2.6c-0.6,0-1,0-1.3,0.1V138.7z M450.4,130.4
			c0.4,0.1,0.7,0.1,1.4,0.1h2.4c0.7,0,1,0,1.4-0.1v1.3c-0.4-0.1-0.9-0.1-1.4-0.1h-2.4c-0.6,0-1,0-1.4,0.1V130.4z M451.5,145.5h2.9
			v-2.9h-2.9V145.5z M466.9,146c0,0.6-0.2,1-0.5,1.3c-0.3,0.2-0.8,0.3-1.6,0.3c-0.4,0-0.7,0-1.9-0.1c0-0.5-0.1-0.7-0.3-1.3
			c1,0.2,1.6,0.2,2.4,0.2c0.6,0,0.7-0.1,0.7-0.6v-14.2h-7.5v2.3c0,4.4-0.2,7.9-0.5,9.9c-0.2,1.6-0.6,2.9-1.3,4
			c-0.3-0.5-0.5-0.6-1-0.9c0.7-1.2,0.9-2.1,1.2-3.8c0.3-2.1,0.4-5.4,0.4-9.5c0-1.9,0-2.4-0.1-3.2c0.5,0.1,1,0.1,1.9,0.1h6.2
			c1,0,1.4,0,1.9-0.1c-0.1,0.5-0.1,1-0.1,2V146z M460.4,134.9c-0.6,0-1,0-1.4,0.1v-1.2c0.5,0.1,0.9,0.1,1.4,0.1h1v-0.3
			c0-0.7,0-1.1-0.1-1.6h1.3c-0.1,0.4-0.1,0.8-0.1,1.6v0.3h1c0.6,0,1,0,1.5-0.1v1.2c-0.4-0.1-0.8-0.1-1.5-0.1h-1v2.1h1.3
			c0.7,0,1,0,1.4-0.1v1.2c-0.4-0.1-0.7-0.1-1.4-0.1h-3.7c-0.6,0-0.9,0-1.4,0.1V137c0.4,0.1,0.8,0.1,1.4,0.1h1.3v-2.1H460.4z
			 M464.3,143.4c0,0.5,0,0.8,0.1,1.1c-0.1,0-0.1,0-0.1,0c0,0-0.1,0-0.3,0c0,0-0.1,0-0.1,0c-0.1,0-0.1,0-0.9-0.1h-2.5v1.3h-1.2
			c0.1-0.4,0.1-0.8,0.1-1.5v-3.4c0-0.5,0-0.9-0.1-1.3c0.4,0,0.8,0.1,1.4,0.1h2.3c0.7,0,1.1,0,1.4-0.1c0,0.4-0.1,0.7-0.1,1.2V143.4z
			 M460.5,143.4h2.8v-2.9h-2.8V143.4z"/>
		<path fill="#74706F" d="M471.3,139.8c0.7-0.4,2.3-2.2,4-4.5c0.6-0.8,0.7-1,1-1.2c0.6-0.5,1.1-0.8,1.6-0.8c0.6,0,1.1,0.3,1.7,0.9
			c0.2,0.2,0.5,0.6,1.5,1.6c2.4,2.9,6.9,6.9,7.9,7.2l-0.7,1.7c-0.2-0.2-0.2-0.2-0.5-0.4c-3.6-3-5.6-5-8.7-8.6
			c-0.5-0.6-0.9-0.9-1.2-0.9c-0.4,0-0.6,0.2-1.6,1.4c-1.3,1.7-2.3,3-3.5,4.3c-0.4,0.4-0.4,0.4-0.6,0.7L471.3,139.8z M484.2,132.3
			c0.9,1.1,1.5,1.9,2.1,3.1l-1,0.6c-0.5-1.1-1.5-2.6-2.1-3.2L484.2,132.3z M486.5,131.2c0.9,1.1,1.4,1.9,2.1,3.1l-1,0.6
			c-0.4-1-1.3-2.2-2-3.2L486.5,131.2z"/>
		<path fill="#74706F" d="M493.6,130.7c1.2,1.8,1.6,2.7,2.1,4.2c0.6,1.6,0.8,3.3,0.8,5.2c0,1.9-0.3,3.6-0.8,5.2
			c-0.5,1.4-1,2.4-2.1,4.2l-1.3-0.8c1.1-1.7,1.6-2.6,2-4c0.5-1.4,0.7-2.9,0.7-4.5c0-1.6-0.2-3.1-0.7-4.5c-0.4-1.4-0.9-2.3-2-4
			L493.6,130.7z"/>
	</g>
</g>
<g>
	<g>
		<g>
			<g>
				<path fill="#1E1E1E" d="M37,9.2c-9,13.2-13.3,25.9-14.8,43.1h-6.1c1.7-17,6.7-29.3,15.2-42.6H7.5V5.2H37V9.2z"/>
				<path fill="#1E1E1E" d="M73.4,42.3c0,10.3,0.1,12.1,0.1,12.3c0,0.3,0,0.3-0.3,0.3h-1.7c-0.3,0-0.3,0-0.3-0.3v-2.2H54.6v2.3
					c0,0.3,0,0.3-0.3,0.3h-1.8c-0.3,0-0.3,0-0.3-0.3c0-0.2,0.1-2,0.1-12.3v-6.9c0-7-0.1-8.9-0.1-9.1c0-0.3,0-0.3,0.3-0.3
					c0.2,0,1.4,0.1,5,0.1h10.7c3.6,0,4.8-0.1,5-0.1c0.3,0,0.3,0,0.3,0.3c0,0.2-0.1,2.1-0.1,8.2V42.3z M71.2,28.1H54.6v9.8h16.7V28.1
					z M71.2,39.9H54.6v10.4h16.7V39.9z"/>
				<path fill="#1E1E1E" d="M97.1,32.5c0,2.2,0.1,3.1,0.1,3.3c0,0.3,0,0.3-0.3,0.3c-0.2,0-1.1-0.1-3.6-0.1h-6.4v12.1
					c0,5.1,0.1,7.3,0.1,7.5c0,0.3,0,0.3-0.3,0.3H85c-0.3,0-0.3,0-0.3-0.3c0-0.2,0.1-2.3,0.1-7.5V32.8c0-5.1-0.1-7.3-0.1-7.6
					c0-0.3,0-0.3,0.3-0.3c0.2,0,1.4,0.1,4.1,0.1h4.2c2.5,0,3.4-0.1,3.6-0.1c0.3,0,0.3,0,0.3,0.3c0,0.2-0.1,1.1-0.1,3.3V32.5z
					 M95.1,26.8h-8.1v2.8h8.1V26.8z M95.1,31.4h-8.1v2.9h8.1V31.4z M105,46.2c0,5.2,0.1,6,0.1,6.2c0,0.3,0,0.3-0.3,0.3h-1.5
					c-0.3,0-0.3,0-0.3-0.3v-1.5h-8.1v1.9c0,0.3,0,0.3-0.3,0.3h-1.5c-0.3,0-0.3,0-0.3-0.3c0-0.2,0.1-1,0.1-6.3v-3c0-3-0.1-4-0.1-4.2
					c0-0.3,0-0.3,0.3-0.3c0.2,0,1,0.1,3.7,0.1h4.2c2.7,0,3.5-0.1,3.7-0.1c0.3,0,0.3,0,0.3,0.3c0,0.2-0.1,1.1-0.1,3.6V46.2z
					 M103,40.8h-8.1V44h8.1V40.8z M103,45.7h-8.1v3.5h8.1V45.7z M113.4,46.8c0,1.9,0.1,3.8,0.1,5.1c0,1.6-0.3,2.2-0.9,2.7
					c-0.7,0.6-1.6,0.7-4.5,0.7c-0.6,0-0.6,0-0.8-0.7c-0.2-0.7-0.4-1.1-0.6-1.6c0.9,0.1,1.8,0.1,2.8,0.1c1.6,0,1.9-0.3,1.9-1.7V36
					h-6.6c-2.8,0-3.7,0.1-3.9,0.1c-0.3,0-0.3,0-0.3-0.3c0-0.2,0.1-0.9,0.1-3.1v-4.3c0-2.2-0.1-2.9-0.1-3.1c0-0.3,0-0.3,0.3-0.3
					c0.2,0,1.1,0.1,3.9,0.1h4.6c2.8,0,3.7-0.1,3.9-0.1c0.3,0,0.3,0,0.3,0.3c0,0.2-0.1,1.7-0.1,5.1V46.8z M111.3,26.8h-8.6v2.8h8.6
					V26.8z M111.3,31.4h-8.6v2.9h8.6V31.4z"/>
				<path fill="#1E1E1E" d="M139.5,31.2c-5.4,0.9-10.1,1.6-14.6,2.6c-1.3,0.3-1.7,0.4-2.2,0.6c-0.3,0.1-0.5,0.3-0.7,0.3
					s-0.4-0.1-0.5-0.3c-0.4-0.7-0.7-1.6-1-2.6c1.3,0,2.2-0.1,4.5-0.4c5.4-0.9,12.7-1.9,22.3-3.1c0.4,0,0.5,0.1,0.6,0.3
					c0.1,0.5,0.2,1.3,0.2,1.8c0,0.3-0.1,0.4-0.5,0.4c-1.9,0.1-3.4,0.3-5.3,1.1c-5.3,2.1-9.3,6.5-9.3,11.3c0,6,5.2,7.7,10.5,8.2
					c0.5,0,0.6,0.1,0.6,0.4c0,0.4-0.1,1.2-0.2,1.7c-0.1,0.4-0.2,0.5-0.6,0.5c-6.1-0.5-12.6-3.1-12.6-10.4
					C130.8,38.5,133.9,34.3,139.5,31.2L139.5,31.2z M143.9,36.3c0.1-0.1,0.2-0.1,0.4,0c1.4,1,3,2.8,4.1,4.4c0.1,0.1,0.1,0.3-0.1,0.4
					l-1,0.9c-0.2,0.1-0.4,0.1-0.5-0.1c-1-1.8-2.6-3.5-4.2-4.6L143.9,36.3z M146.9,34c0.1-0.1,0.3-0.1,0.4,0c1.4,1.1,3.1,2.7,4.1,4.2
					c0.1,0.2,0.1,0.3-0.1,0.4l-1,0.9c-0.1,0.1-0.3,0.1-0.4-0.1c-0.9-1.5-2.4-3.2-4.1-4.5L146.9,34z"/>
				<path fill="#1E1E1E" d="M8,88.4c0.3-0.3,0.4-0.3,0.6-0.1c1.2,1,2.4,2.1,3.7,3.4c0.3-0.6,0.5-1.3,0.8-1.9
					c0.4-1.2,0.7-2.2,0.8-3.2c0.7,0.2,1.5,0.5,2,0.8c0.3,0.1,0.4,0.3,0.4,0.4c0,0.2-0.2,0.4-0.4,0.6c-0.3,0.4-0.4,0.8-0.6,1.5
					c-0.4,1.2-0.9,2.2-1.4,3.3c1.2,1.3,2.3,2.6,3.4,4c0.1,0.2,0.1,0.3-0.1,0.5l-0.8,0.9c-0.3,0.4-0.4,0.4-0.6,0.1
					c-0.9-1.3-1.8-2.5-2.8-3.7c-1.9,3.2-4.7,5.9-8.2,8.1c-0.3,0.1-0.4,0.3-0.5,0.3c-0.1,0-0.3-0.1-0.5-0.5c-0.3-0.4-0.7-0.8-1-1
					c4-2.3,7-5.1,8.9-8.4c-1.3-1.3-2.6-2.6-4.1-3.9C7,89.4,7,89.3,7.2,89.1L8,88.4z M9.4,82.5c-0.3,0.2-0.5,0.5-0.7,0.9
					c-0.9,1.7-2,3.3-3.8,5.3c-0.3,0.3-0.4,0.4-0.5,0.4c-0.1,0-0.3-0.1-0.5-0.4c-0.4-0.4-0.7-0.7-1.2-0.8c2.2-1.9,3.3-3.7,4.2-5.5
					c0.2-0.4,0.4-1,0.5-1.6c0.8,0.3,1.4,0.6,2,0.9c0.3,0.2,0.3,0.3,0.3,0.4C9.7,82.2,9.6,82.4,9.4,82.5z M19.8,79.1
					c0,0.2,0,0.3-0.3,0.3c-0.2,0-1.3-0.1-4.5-0.1H8.1c-3.2,0-4.3,0.1-4.5,0.1c-0.3,0-0.3,0-0.3-0.3v-1.5c0-0.3,0-0.3,0.3-0.3
					c0.2,0,1.2,0.1,4.5,0.1h2.6v-2c0-1.8-0.1-2.8-0.3-3.8c0.9,0,1.7,0.1,2.4,0.2c0.3,0,0.4,0.1,0.4,0.3c0,0.3-0.1,0.4-0.2,0.7
					c-0.1,0.4-0.2,1-0.2,2.6v2H15c3.2,0,4.3-0.1,4.5-0.1c0.3,0,0.3,0,0.3,0.3V79.1z M15.3,81.1c0.4-0.2,0.4-0.2,0.5,0.1
					c1.2,2.1,2.6,4,4.8,6.1c-0.5,0.2-0.8,0.5-1.2,0.9c-0.2,0.2-0.3,0.4-0.5,0.4s-0.3-0.1-0.5-0.4c-1.7-1.8-3.2-4-4.4-6
					c-0.1-0.3-0.1-0.4,0.3-0.5L15.3,81.1z M29.6,80.5c3,0,3.9-0.1,4.1-0.1c0.2,0,0.3,0.1,0.3,0.3c0,1.1-0.1,2.2-0.1,3.2
					c0,5.4-0.3,11.4-1,15.9c-0.4,2.7-1.7,3.6-3.9,3.6c-1,0-1.8,0-2.6-0.1c-0.7,0-0.7,0-0.8-0.8c-0.1-0.5-0.3-1-0.5-1.5
					c1.2,0.2,2.4,0.3,3.7,0.3s1.7-0.4,2.1-2.4c0.6-3.9,0.9-10.2,0.9-16.5h-5.2c-0.3,3.6-0.8,7.2-1.6,9.9c-1.4,4.6-3.9,8.2-8.1,11.4
					c-0.3,0.2-0.4,0.3-0.5,0.3c-0.1,0-0.3-0.1-0.5-0.4c-0.4-0.4-0.8-0.8-1.3-1c4.5-2.7,7.3-6.8,8.6-11.1c0.7-2.4,1.2-5.6,1.5-9.1
					h-0.3c-3,0-3.9,0.1-4.1,0.1c-0.3,0-0.3,0-0.3-0.3v-1.5c0-0.3,0-0.3,0.3-0.3c0.2,0,1.1,0.1,4.1,0.1h0.4c0.1-1.4,0.1-2.8,0.1-4.3
					c0-2.2,0-3.1-0.3-4.4c0.9,0,1.7,0.1,2.4,0.3c0.3,0.1,0.4,0.2,0.4,0.4c0,0.2-0.1,0.4-0.2,0.8c-0.1,0.4-0.2,1.3-0.2,3.2
					c0,1.3,0,2.7-0.1,4.1H29.6z"/>
				<path fill="#1E1E1E" d="M57.9,92.3c3.4,3.7,8.2,6.3,14.2,8.1c-0.4,0.4-0.8,0.9-1,1.4c-0.3,0.6-0.4,0.6-1,0.4
					c-5.2-1.9-9.8-4.4-13.6-9.2c0,5.5,0.2,9.9,0.2,10.8c0,0.3,0,0.3-0.3,0.3h-1.8c-0.3,0-0.3,0-0.3-0.3c0-0.9,0.2-5.1,0.3-10.7
					c-3.5,4.5-7.6,7.2-12.9,9.3c-0.7,0.3-0.7,0.2-1-0.4c-0.3-0.5-0.6-0.9-1.1-1.2c5.7-2.1,10.2-4.6,13.5-8.5h-8
					c-3.4,0-4.5,0.1-4.7,0.1c-0.3,0-0.3,0-0.3-0.3v-1.5c0-0.3,0-0.3,0.3-0.3c0.2,0,1.3,0.1,4.7,0.1h9.4v-3.3h-4.4
					c-3.5,0-4.8,0.1-5,0.1c-0.3,0-0.3,0-0.3-0.3c0-0.2,0.1-1.1,0.1-3.6v-5.9c0-2.5-0.1-3.4-0.1-3.6c0-0.3,0-0.3,0.3-0.3
					c0.2,0,1.5,0.1,5,0.1h11.4c3.6,0,4.8-0.1,5-0.1c0.3,0,0.3,0,0.3,0.3c0,0.2-0.1,1.1-0.1,3.6v5.9c0,2.5,0.1,3.4,0.1,3.6
					c0,0.3,0,0.3-0.3,0.3c-0.2,0-1.5-0.1-5-0.1h-4.9v3.3h10.1c3.4,0,4.5-0.1,4.7-0.1c0.3,0,0.3,0,0.3,0.3v1.5c0,0.3,0,0.3-0.3,0.3
					c-0.2,0-1.3-0.1-4.7-0.1H57.9z M54.4,75.4H47v3.9h7.5V75.4z M54.4,81.2H47v4.1h7.5V81.2z M64.6,75.4h-8v3.9h8V75.4z M64.6,81.2
					h-8v4.1h8V81.2z"/>
				<path fill="#1E1E1E" d="M94.5,96.3c0,0.3-0.1,0.4-0.4,0.4c-0.4,0.1-1.1,0.1-1.5,0.1c-0.2,0-0.3-0.2-0.3-0.4c0-1.6,0-3.3,0-5.2
					c-4,2-5.9,3.8-5.9,6c0,2.1,2,3,6.2,3c3,0,5.9-0.4,8.6-0.7c0.2,0,0.3,0,0.4,0.3c0.1,0.5,0.2,1.3,0.2,1.8c0,0.3-0.1,0.5-0.3,0.5
					c-2.6,0.3-5.5,0.5-8.9,0.5c-5,0-8.3-1.3-8.3-5.1c0-3,2-5.5,8-8.4c-0.1-2.4-0.9-3.4-3-3.4c-1.5,0-3.6,0.9-5.9,2.9
					c-1.3,1.2-2.2,2.2-3.4,3.5c-0.2,0.3-0.4,0.3-0.5,0.1c-0.4-0.3-1-1-1.3-1.4c-0.1-0.2-0.1-0.3,0.1-0.5c3.3-2.8,6.3-6.3,8.4-10
					c-2.2,0.1-4.4,0.1-6.7,0.1c-0.3,0-0.4-0.1-0.4-0.4c-0.1-0.4-0.2-1.2-0.2-1.8c2.6,0.1,5.4,0.1,8.4,0c0.4-1.1,0.9-2.3,1.3-3.6
					c0.2-0.6,0.3-1.2,0.3-1.9c1,0.2,2.1,0.5,2.7,0.8c0.4,0.2,0.4,0.5,0.1,0.8c-0.1,0.1-0.4,0.4-0.6,1c-0.4,0.9-0.8,1.7-1.2,2.7
					c2.5-0.3,5.1-0.6,7.6-1.2c0.3-0.1,0.4-0.1,0.4,0.1c0.1,0.5,0.2,1,0.2,1.6c0,0.3-0.1,0.4-0.5,0.4c-2.8,0.5-5.9,0.9-8.8,1.2
					c-1.2,2.2-2.4,3.9-3.7,5.4l0,0.1c1.5-1.1,3.1-1.5,4.5-1.5c2.7,0,4.2,1.4,4.5,4.2c1.8-0.8,3.8-1.7,5.6-2.6c1-0.5,2-1.1,2.7-1.8
					c0.8,0.7,1.5,1.7,1.8,2.1c0.3,0.5,0,0.8-0.4,0.8c-0.4,0.1-1.2,0.3-2,0.6c-2.7,1.2-5,2-7.6,3.1V96.3z"/>
				<path fill="#1E1E1E" d="M128,93.8c3.1,4.6,8.4,6.8,14.7,7.7c-0.3,0.4-0.7,0.9-0.9,1.5c-0.2,0.5-0.3,0.6-0.5,0.6
					c-0.1,0-0.3,0-0.5-0.1c-5.9-1.1-11.2-3.6-14.5-9c-0.3,0.7-0.7,1.4-1.2,2.1c-2.4,3.3-6.2,5.3-12.2,6.8c-0.3,0.1-0.4,0.1-0.5,0.1
					c-0.3,0-0.3-0.1-0.5-0.6c-0.2-0.5-0.6-1-0.9-1.4c6.2-1.2,10.5-3.3,12.5-6.3c0.3-0.5,0.6-1,0.8-1.5h-7.1c-3.5,0-4.7,0.1-4.9,0.1
					c-0.3,0-0.3,0-0.3-0.3v-1.4c0-0.3,0-0.3,0.3-0.3c0.2,0,1.4,0.1,4.9,0.1h7.7c0.2-0.9,0.3-2,0.4-3.3h-3.6c-3.5,0-4.7,0.1-4.9,0.1
					c-0.3,0-0.3,0-0.3-0.3v-1.3c0-0.3,0-0.3,0.3-0.3c0.2,0,1.4,0.1,4.9,0.1h3.7c0-0.9,0-2,0-3.2h-4c-3.6,0-4.8,0.1-5,0.1
					c-0.3,0-0.3,0-0.3-0.3v-1.4c0-0.3,0-0.3,0.3-0.3c0.2,0,1.4,0.1,5,0.1h4c0-1.7-0.1-2.6-0.3-3.4c0.9,0,1.6,0.1,2.2,0.2
					c0.3,0.1,0.6,0.1,0.6,0.4c0,0.2-0.1,0.5-0.3,0.8s-0.1,0.9-0.1,2.1h4.5c3.5,0,4.7-0.1,4.9-0.1c0.3,0,0.3,0,0.3,0.3v1.4
					c0,0.3,0,0.3-0.3,0.3c-0.2,0-1.4-0.1-4.9-0.1h-4.5c0,1.2,0,2.2,0,3.2h4.1c3.6,0,4.7-0.1,4.9-0.1c0.3,0,0.3,0,0.3,0.3v1.3
					c0,0.3,0,0.3-0.3,0.3c-0.2,0-1.3-0.1-4.9-0.1h-4.2c0,1.3-0.1,2.3-0.3,3.3h9.4c3.5,0,4.7-0.1,4.9-0.1c0.3,0,0.3,0,0.3,0.3v1.4
					c0,0.3,0,0.3-0.3,0.3c-0.2,0-1.4-0.1-4.9-0.1H128z M141,78.9c0,3.1,0.1,3.6,0.1,3.8c0,0.3,0,0.3-0.3,0.3h-1.7
					c-0.3,0-0.3,0-0.3-0.3v-5.1h-24.6v5.1c0,0.3,0,0.3-0.3,0.3h-1.7c-0.3,0-0.3,0-0.3-0.3c0-0.2,0.1-0.6,0.1-3.8v-1.2
					c0-1.2-0.1-1.7-0.1-1.9c0-0.3,0-0.3,0.3-0.3c0.2,0,1.5,0.1,5,0.1h7.9v-0.4c0-1.8-0.1-2.8-0.3-3.7c0.9,0,1.7,0.1,2.4,0.2
					c0.3,0,0.4,0.1,0.4,0.3c0,0.3-0.1,0.4-0.2,0.7c-0.1,0.3-0.2,0.9-0.2,2.5v0.4h8.5c3.6,0,4.8-0.1,5-0.1c0.3,0,0.3,0,0.3,0.3
					c0,0.2-0.1,0.7-0.1,1.7V78.9z"/>
				<path fill="#1E1E1E" d="M169.2,77.5c0.3,3,1,6,2.1,8.7c0.9-1.4,1.6-2.8,2.1-4.2c0.2-0.6,0.4-1.4,0.5-2.1
					c0.7,0.2,1.3,0.4,1.8,0.6c0.3,0.1,0.4,0.2,0.4,0.4c0,0.2-0.1,0.3-0.3,0.5c-0.2,0.2-0.3,0.4-0.5,1c-0.8,1.8-1.7,3.8-3,5.7
					c1.3,2.1,2.8,3.5,3.7,3.5c1.3,0,1.7-1.4,2.2-4.1c0.3,0.4,0.7,0.7,1.1,0.9c0.6,0.4,0.6,0.4,0.5,1.1c-0.8,3-1.7,4.2-3.7,4.2
					c-1.6,0-3.5-1.7-5-3.9c-1.1,1.2-2.4,2.4-4,3.6c-0.3,0.2-0.4,0.3-0.6,0.3c-0.2,0-0.3-0.1-0.6-0.4c-0.3-0.3-0.6-0.5-1-0.7
					c2.2-1.3,3.9-2.9,5.3-4.4c-1.6-3.2-2.4-6.8-2.8-10.5h-14v3.2c0,1.6-0.3,5.5-0.7,7.1c-0.6,2.3-1.2,4.1-2.7,6.2
					c-0.2,0.3-0.3,0.4-0.4,0.4c-0.1,0-0.3-0.1-0.5-0.4c-0.4-0.4-0.9-0.6-1.3-0.8c1.6-2.1,2.3-3.5,2.8-5.7c0.5-1.9,0.8-4.3,0.8-8
					c0-2.6-0.1-3.6-0.1-3.8c0-0.3,0-0.3,0.3-0.3c0.2,0,1.5,0.1,5.1,0.1H167l-0.1-1.4c-0.1-1-0.2-1.9-0.4-2.6c0.8,0,1.5,0.1,2.3,0.2
					c0.3,0,0.4,0.1,0.4,0.3c0,0.2-0.1,0.4-0.1,0.6c-0.1,0.3-0.1,0.9-0.1,1.5c0,0.5,0,0.9,0,1.4h4.1c3.6,0,4.8-0.1,5-0.1
					c0.3,0,0.3,0,0.3,0.3v1.4c0,0.3,0,0.3-0.3,0.3c-0.2,0-1.4-0.1-5-0.1H169.2z M153.6,95.5c0.4,0.2,0.4,0.3,0.4,0.5
					c-0.9,2.3-2.2,4.6-3.9,6.4c-0.1,0.1-0.2,0.2-0.3,0.2c-0.1,0-0.2-0.1-0.4-0.2l-0.9-0.6c-0.4-0.3-0.5-0.4-0.3-0.6
					c1.6-1.5,3-3.7,3.7-5.9c0.1-0.3,0.2-0.3,0.7-0.1L153.6,95.5z M165.6,81.6c0,0.3,0,0.3-0.3,0.3c-0.1,0-1-0.1-3.3-0.1h-3.6
					c-2.4,0-3.2,0.1-3.4,0.1s-0.3,0-0.3-0.3v-1.3c0-0.3,0-0.3,0.3-0.3s1,0.1,3.4,0.1h3.6c2.4,0,3.2-0.1,3.3-0.1c0.3,0,0.3,0,0.3,0.3
					V81.6z M164.8,88.7c0,1.6,0.1,2.1,0.1,2.3c0,0.3,0,0.3-0.3,0.3c-0.2,0-0.9-0.1-3.1-0.1h-3c-2.2,0-2.9,0.1-3.1,0.1
					c-0.3,0-0.3,0-0.3-0.3c0-0.2,0.1-0.7,0.1-2.3v-2.1c0-1.6-0.1-2.1-0.1-2.3c0-0.3,0-0.3,0.3-0.3c0.2,0,0.9,0.1,3.1,0.1h3
					c2.2,0,2.8-0.1,3.1-0.1c0.3,0,0.3,0,0.3,0.3c0,0.2-0.1,0.7-0.1,2.3V88.7z M158.7,99.9c0,0.8,0.2,1.3,0.9,1.4
					c0.9,0.2,2.2,0.3,3.9,0.3c2.3,0,4.4,0,5.5-0.6c0.9-0.5,1.2-1.6,1.3-3.3c0.4,0.3,0.9,0.5,1.4,0.7c0.6,0.2,0.7,0.3,0.6,0.9
					c-0.3,2.2-1.1,3.1-2,3.5c-1.5,0.7-4,0.7-6.7,0.7c-2.4,0-4.1,0-5.3-0.3c-0.9-0.3-1.6-0.8-1.6-2.3v-3.5c0-1.1,0-2.1-0.1-2.9
					c0.8,0,1.6,0.1,2.2,0.2c0.3,0,0.4,0.2,0.4,0.3c0,0.2-0.1,0.3-0.1,0.5c-0.1,0.3-0.2,0.6-0.2,1.6V99.9z M163,85.8h-6v3.7h6V85.8z
					 M162.5,93.2c0.4-0.3,0.4-0.3,0.7,0c1.3,1,2.7,2.4,3.7,3.6c0.1,0.2,0.1,0.3-0.3,0.5l-0.8,0.6c-0.4,0.3-0.5,0.3-0.7,0
					c-1-1.4-2.3-2.7-3.5-3.7c-0.2-0.2-0.2-0.3,0.2-0.5L162.5,93.2z M171.9,71.7c0.3-0.2,0.3-0.2,0.5,0c1.1,0.6,2.2,1.5,3.3,2.6
					c0.2,0.2,0.1,0.3-0.1,0.5l-0.6,0.5c-0.4,0.3-0.5,0.4-0.7,0.1c-1-1-2.1-1.9-3.2-2.7c-0.3-0.2-0.2-0.3,0.1-0.5L171.9,71.7z
					 M174.3,94.8c0.4-0.2,0.4-0.2,0.6,0c1.7,1.8,2.9,3.5,4.1,5.6c0.1,0.3,0.1,0.4-0.3,0.6l-1,0.5c-0.4,0.2-0.5,0.2-0.6,0
					c-1.1-2.1-2.4-4.1-3.9-5.7c-0.2-0.2-0.2-0.3,0.3-0.5L174.3,94.8z"/>
				<path fill="#1E1E1E" d="M192,74.1c0.4,0.1,0.6,0.3,0.6,0.5c0,0.3-0.1,0.6-0.3,0.9c-0.1,0.4-0.3,1.5-0.4,3.7
					c-0.3,5.4-0.5,10.4-0.5,15.3c0,4,1.1,5.3,4.2,5.3c4.6,0,9.3-2.8,13-6.9c0.1,0.8,0.4,1.5,0.6,2.1c0.1,0.2,0.1,0.4,0.1,0.5
					c0,0.2-0.1,0.4-0.4,0.7c-3.8,3.6-8.6,6-13.7,6c-4.1,0-6.3-1.9-6.3-7.2c0-5.1,0.3-11,0.5-16.1c0.1-2.2,0.1-3.8-0.3-5.4
					C190.2,73.7,191.3,73.9,192,74.1z"/>
				<path fill="#1E1E1E" d="M232.5,78.6c0.3-0.1,0.4,0,0.4,0.3c0.1,0.4,0.1,1,0.2,1.5c0,0.4,0,0.5-0.4,0.5c-2.3,0.6-4.3,1.1-6.5,1.5
					c-2.2,7.3-4.4,13.6-6.9,19.4c-0.1,0.3-0.3,0.3-0.5,0.2c-0.3-0.1-1.2-0.5-1.7-0.8c-0.2-0.1-0.2-0.3-0.1-0.5c3-6.3,5-12,6.7-18
					c-2.3,0.3-4.8,0.4-7.3,0.4c-0.4,0-0.5,0-0.6-0.4c-0.1-0.5-0.2-1.3-0.3-2c0.7,0.1,1.3,0.1,2.3,0.1c1.7,0,4.2-0.1,6.5-0.4
					c0.5-1.9,0.8-3.2,1-4.5c0.2-1,0.4-2.2,0.3-3.4c1,0.2,2.1,0.5,2.9,0.8c0.2,0.1,0.3,0.2,0.3,0.4c0,0.2-0.1,0.4-0.3,0.6
					c-0.3,0.3-0.4,0.6-0.6,1.4c-0.4,1.5-0.8,3-1.2,4.3C228.5,79.8,230.5,79.2,232.5,78.6z M230.7,95.1c0.3,0,0.4,0.1,0.4,0.4
					c0.3,3.2,2.3,4.3,6.8,4.3c1.8,0,3.9-0.3,5.3-0.5c0.3,0,0.4,0,0.4,0.3c0.1,0.4,0.1,1.2,0.1,1.7c0,0.4-0.1,0.4-0.4,0.5
					c-1.1,0.2-3,0.4-4.7,0.4c-3.9,0-6.3-0.5-7.9-2c-1.3-1.1-1.7-2.7-1.8-4.9C229.6,95.1,230.3,95.1,230.7,95.1z M231.6,85.8
					c0-0.3,0.1-0.4,0.5-0.5c2.1-0.5,4.2-0.8,6.3-0.8c1.5,0,3.1,0.2,4.5,0.4c0.4,0.1,0.5,0.2,0.5,0.4c0,0.4,0.1,1.1,0,1.6
					c0,0.4-0.1,0.5-0.5,0.5c-1.5-0.3-3.1-0.4-4.6-0.4c-2.2,0-4.5,0.3-6.6,0.8C231.7,87.1,231.6,86.2,231.6,85.8z"/>
				<path fill="#1E1E1E" d="M282.2,80.2c0,0.3,0,0.3-0.3,0.3c-0.2,0-1.3-0.1-4.7-0.1h-12.8c-0.1,2-0.2,3.8-0.4,5.5h9.1
					c3.1,0,4-0.1,4.2-0.1c0.3,0,0.4,0.1,0.3,0.4c-0.1,0.8-0.1,1.7-0.2,2.5c-0.4,5.4-0.8,8.8-1.3,10.9c-0.7,2.8-1.9,3.7-4.5,3.7
					c-0.7,0-2.1-0.1-3.5-0.2c-0.7-0.1-0.7-0.1-0.8-0.8c-0.1-0.6-0.3-1.3-0.5-1.7c2.1,0.4,3.7,0.4,4.6,0.4c1.4,0,2-0.8,2.4-2.2
					c0.5-2.1,1-6,1.2-10.8h-11.4c-1.3,7.2-4.4,11.6-11.1,15.4c-0.3,0.1-0.4,0.2-0.5,0.2c-0.2,0-0.3-0.2-0.6-0.6
					c-0.3-0.5-0.8-0.8-1.3-1.2c8.6-4.2,11.6-9.6,11.8-21.5h-6.3c-3.3,0-4.5,0.1-4.7,0.1c-0.3,0-0.3,0-0.3-0.3v-1.7
					c0-0.3,0-0.3,0.3-0.3c0.2,0,1.3,0.1,4.7,0.1h9.3v-2.8c0-1.8,0-2.8-0.3-3.7c0.9,0,1.8,0.1,2.5,0.2c0.3,0,0.4,0.1,0.4,0.3
					c0,0.3-0.1,0.4-0.2,0.7c-0.1,0.4-0.2,0.9-0.2,2.5v2.8h10c3.4,0,4.5-0.1,4.7-0.1c0.3,0,0.3,0,0.3,0.3V80.2z"/>
			</g>
		</g>
		<g>
			<g>
				<path fill="#DC1A5A" d="M315.6,13.3C322.9,4.4,331.7,0,342.2,0c9.1,0,16.1,3.2,21,9.6c4.9,6.4,7.3,14.7,7.3,24.8
					c0,19-7.4,35.7-22.2,50.2c-14.4,14.1-31.3,22-50.9,23.8v-2.9c12-2.1,23.6-8.7,34.7-19.6c8.8-8.6,14.3-16.2,16.5-22.6l-0.5-0.4
					c-2.9,1.9-6.1,3.6-9.5,5c-3.4,1.4-7,2.1-10.8,2.1c-5.3,0-10.5-2.2-15.6-6.7c-5.1-4.4-7.6-11.7-7.6-21.8
					C304.6,31.5,308.3,22.1,315.6,13.3z M345.7,59.6c3.8-2,6.5-5,8.2-9c1.1-2.6,2.2-6.3,3.3-11.2c1.1-4.9,1.6-9.3,1.6-13.3
					c0-5.6-0.7-10-2-13.2c-2.4-5.8-6.9-8.8-13.6-8.8c-7.6,0-13.6,3.9-18.1,11.7c-4.4,7.8-6.7,16.3-6.7,25.5c0,5.3,0.7,9.5,2.1,12.7
					c2.5,5.8,7.2,8.7,14.1,8.7C338.2,62.7,341.9,61.7,345.7,59.6z"/>
				<path fill="#DC1A5A" d="M393.4,35.8c-2.2-4.1-3.3-8.1-3.3-12.1c0-6.7,2.9-12.4,8.7-17.2c5.4-4.3,11.8-6.5,19.3-6.5
					c7,0,13.3,2,19,5.9c5.6,3.9,8.5,9.4,8.5,16.3c0,6.8-3.4,12.4-10.1,16.8c-3.7,2.4-8.8,4.7-15.5,6.8c6.2,5.8,10.8,11.1,13.7,15.9
					c3.1,4.8,4.6,9.9,4.6,15.2c0,7.9-3.1,14.8-9.4,20.7c-6.2,5.9-14.4,8.9-24.4,8.9c-9.8,0-17.4-2.5-22.9-7.6
					c-5.5-5.1-8.2-11.1-8.2-18c0-9,3.9-16.5,11.8-22.6c4.8-3.7,10.9-6.7,18.4-9.1C399,44.4,395.6,39.9,393.4,35.8z M419.9,97.3
					c4.3-3.7,6.5-9,6.5-15.8c0-3-0.5-5.7-1.5-8.2c-1-2.4-2.2-4.6-3.7-6.6c-2.1-2.5-4.4-5.1-6.9-7.7s-5-5-7.6-7.1
					c-5.8,1.7-11.1,5-15.7,9.8c-4.6,4.8-7,10.9-7,18.3c0,7.7,2.1,13.4,6.2,17.2c4.2,3.7,9.3,5.6,15.3,5.6
					C410.7,102.9,415.5,101.1,419.9,97.3z M429.7,35.6c3.6-3.5,5.4-8.1,5.4-13.9c0-4.7-1.4-8.8-4.2-12.5c-2.8-3.6-6.9-5.4-12.2-5.4
					c-5.3,0-9.3,1.6-12.1,4.8c-2.7,3.2-4.1,6.8-4.1,11c0,4.2,1.3,8.3,3.9,12.1c2.6,3.9,6.2,7.7,10.9,11.5
					C423.3,40.2,427.5,37.7,429.7,35.6z"/>
			</g>
		</g>
		<g>
			<g>
				<path fill="#DC1A5A" d="M497.2,53.4c0.3-0.3,0.6-0.5,0.9-0.7c0.4-0.2,0.8-0.3,1.4-0.3h4.6l-42.1,51.8c-0.2,0.3-0.5,0.6-0.9,0.8
					s-0.8,0.3-1.3,0.3h-4.6L497.2,53.4z M478.9,62.9c0,2.4-0.4,4.6-1.1,6.5c-0.7,1.9-1.7,3.5-2.9,4.8c-1.2,1.3-2.5,2.3-4,3
					c-1.5,0.7-3.1,1-4.7,1c-1.4,0-2.6-0.3-3.8-0.8c-1.2-0.5-2.1-1.2-3-2.2c-0.8-0.9-1.5-2.1-1.9-3.5c-0.5-1.4-0.7-2.9-0.7-4.6
					c0-2.4,0.3-4.6,1-6.5c0.7-1.9,1.6-3.5,2.7-4.8c1.1-1.3,2.5-2.3,4-3c1.5-0.7,3.2-1,4.9-1c1.4,0,2.6,0.3,3.8,0.8
					c1.2,0.5,2.1,1.2,3,2.2c0.8,1,1.5,2.1,1.9,3.5C478.7,59.6,478.9,61.2,478.9,62.9z M474,63c0-1.2-0.1-2.3-0.4-3.2
					c-0.3-0.9-0.6-1.6-1.1-2.2c-0.4-0.6-1-1-1.6-1.3c-0.6-0.3-1.2-0.4-1.9-0.4c-1,0-1.9,0.2-2.8,0.6c-0.9,0.4-1.6,1.1-2.3,2
					c-0.6,0.9-1.2,2.1-1.5,3.5c-0.4,1.4-0.6,3.1-0.6,5.1c0,1.2,0.1,2.2,0.4,3.1c0.2,0.8,0.6,1.5,1,2.1c0.4,0.6,1,1,1.6,1.2
					c0.6,0.3,1.3,0.4,2,0.4c1,0,1.9-0.2,2.7-0.6c0.9-0.4,1.6-1,2.3-1.9c0.7-0.9,1.2-2,1.5-3.4C473.8,66.7,474,65,474,63z
					 M502.5,90.5c0,2.4-0.4,4.6-1.1,6.5c-0.7,1.9-1.7,3.5-2.8,4.8c-1.2,1.3-2.5,2.3-4.1,3c-1.5,0.7-3.1,1-4.7,1
					c-1.4,0-2.6-0.3-3.8-0.8s-2.1-1.2-3-2.2c-0.8-0.9-1.5-2.1-1.9-3.4c-0.5-1.4-0.7-2.9-0.7-4.6c0-2.4,0.3-4.6,1-6.5
					c0.7-1.9,1.6-3.5,2.7-4.9c1.1-1.3,2.5-2.3,4-3c1.5-0.7,3.2-1,4.9-1c1.4,0,2.6,0.3,3.8,0.8c1.1,0.5,2.1,1.2,3,2.2
					c0.8,1,1.5,2.1,1.9,3.5C502.3,87.2,502.5,88.8,502.5,90.5z M497.6,90.5c0-1.2-0.1-2.3-0.4-3.2c-0.3-0.9-0.6-1.6-1.1-2.2
					c-0.4-0.6-1-1-1.6-1.2c-0.6-0.3-1.2-0.4-1.9-0.4c-1,0-1.9,0.2-2.8,0.6c-0.9,0.4-1.6,1.1-2.3,2c-0.7,0.9-1.2,2.1-1.5,3.5
					c-0.4,1.4-0.6,3.1-0.6,5.1c0,1.2,0.1,2.2,0.4,3.1c0.2,0.9,0.6,1.6,1,2.1c0.4,0.6,1,1,1.6,1.2c0.6,0.3,1.3,0.4,2,0.4
					c1,0,1.9-0.2,2.7-0.6c0.9-0.4,1.6-1.1,2.3-1.9s1.2-2,1.6-3.4C497.4,94.2,497.6,92.5,497.6,90.5z"/>
				<path fill="#DC1A5A" d="M512.8,101.1c0-0.6,0.1-1.2,0.4-1.8c0.2-0.6,0.6-1.1,1-1.5c0.4-0.4,0.9-0.8,1.4-1
					c0.6-0.2,1.2-0.4,1.8-0.4c0.6,0,1.2,0.1,1.8,0.4c0.6,0.2,1.1,0.6,1.5,1c0.4,0.4,0.7,0.9,1,1.5c0.2,0.6,0.4,1.2,0.4,1.8
					c0,0.7-0.1,1.3-0.4,1.8c-0.2,0.6-0.6,1-1,1.5c-0.4,0.4-0.9,0.7-1.5,1c-0.6,0.2-1.2,0.4-1.8,0.4c-0.7,0-1.3-0.1-1.8-0.4
					c-0.6-0.2-1-0.6-1.4-1c-0.4-0.4-0.7-0.9-1-1.5C513,102.4,512.8,101.7,512.8,101.1z M526.1,52.3l-2.6,21.2
					c-0.1,1.1-0.3,2.2-0.5,3.2c-0.2,1-0.4,2.1-0.6,3.2c-0.2,1.1-0.4,2.2-0.7,3.3c-0.2,1.1-0.5,2.3-0.8,3.6h-4.3
					c0-1.3,0.1-2.5,0.1-3.6c0-1.1,0.1-2.2,0.1-3.3c0.1-1.1,0.1-2.1,0.2-3.2c0.1-1,0.2-2.1,0.4-3.2l2.6-21.2H526.1z"/>
				<path fill="#DC1A5A" d="M534.8,101.1c0-0.6,0.1-1.2,0.3-1.8c0.2-0.6,0.6-1.1,1-1.5c0.4-0.4,0.9-0.8,1.4-1
					c0.6-0.2,1.2-0.4,1.8-0.4c0.6,0,1.2,0.1,1.8,0.4c0.6,0.2,1.1,0.6,1.5,1c0.4,0.4,0.7,0.9,1,1.5c0.2,0.6,0.4,1.2,0.4,1.8
					c0,0.7-0.1,1.3-0.4,1.8s-0.6,1-1,1.5c-0.4,0.4-0.9,0.7-1.5,1c-0.6,0.2-1.2,0.4-1.8,0.4c-0.7,0-1.3-0.1-1.8-0.4
					c-0.6-0.2-1-0.6-1.4-1c-0.4-0.4-0.7-0.9-1-1.5S534.8,101.7,534.8,101.1z M548,52.3l-2.6,21.2c-0.1,1.1-0.3,2.2-0.5,3.2
					c-0.2,1-0.4,2.1-0.6,3.2c-0.2,1.1-0.4,2.2-0.7,3.3c-0.2,1.1-0.5,2.3-0.8,3.6h-4.3c0-1.3,0.1-2.5,0.1-3.6c0-1.1,0.1-2.2,0.1-3.3
					c0.1-1.1,0.1-2.1,0.2-3.2c0.1-1,0.2-2.1,0.3-3.2l2.6-21.2H548z"/>
			</g>
		</g>
	</g>
</g>
</svg>
