<svg id="レイヤー_1" xmlns="http://www.w3.org/2000/svg" viewBox="0 0 180.4 44.5"><style>.st0{fill:#fff}</style><path class="st0" d="M33.4 26.3l-9-14.6h-6.5v20.9h6.5V18.1l9.1 14.6H40v-21h-6.5l-.1 14.6zm51.4-7.5v-2.1h-3.4v-2.8h-6.3v2.8h-3.4v2.1h3.4v13.9h6.3V18.8h3.4zM43.5 32.7h6.3v-14h-6.3v14zm0-16.7h6.3v-4.3h-6.3V16zm110.3 1.8c-5.1 0-9.2 3.5-9.2 7.8s4.1 7.8 9.2 7.8 9.2-3.5 9.2-7.8-4.1-7.8-9.2-7.8zm2.5 10.7c0 2.2-1.3 3.1-2.6 3.1s-2.6-.9-2.6-3.1v-5.9c0-2.2 1.3-3.1 2.6-3.1s2.6.9 2.6 3.1v5.9zm-20-9.1c-1-.6-2.1-1.1-3.6-1.2-4.5-.4-8 3.6-8 7.3 0 4.8 3.7 6.6 4.3 6.9 2.1 1 4.8 1 7.2-.5v.8h6.2v-21h-6.2c.1 0 .1 4.5.1 7.7zm.1 8.7c0 2.1-1.5 2.7-2.5 2.7s-2.5-.6-2.5-2.7v-5c0-2.2 1.5-2.7 2.5-2.7s2.5.6 2.5 2.7v5zm-71.9-10c-2.1.1-3.8 1-5 2.1v-1.5h-6.3v13.9h6.2v-9.1c0-1.2 1.3-2.6 3-2.6s2.9 1.3 2.9 2.6v9.1h6.3V25c.1-5.4-4.7-7-7.1-6.9zm51.2 0c-2.1.1-3.8 1-5 2.1v-1.5h-6.2v13.9h6.2v-9.1c0-1.2 1.3-2.6 3-2.6s2.9 1.3 2.9 2.6v9.1h6.3V25c-.1-5.4-4.9-7-7.2-6.9zm-13.2 7.7c0-4.3-4.2-7.9-9.3-7.9-5.1 0-9.3 3.5-9.3 7.8s4.1 7.8 9.3 7.8c4.2 0 7.8-2.4 8.9-5.7h-6.3v.8c0 2.5-1.7 3.1-2.6 3.1-.9 0-2.6-.6-2.6-3.1v-2.9l11.9.1zm-11.4-4.9a2.514 2.514 0 0 1 4.4 0c.4.7.4 1.5.4 2.7h-5.3c0-1.2.1-2 .5-2.7zm74.4-6.6c0-.7-.5-1-1.5-1h-1.4v3.6h.9v-1.5h.4l.7 1.5h1l-.8-1.6c.4-.2.7-.5.7-1zm-1.7.6h-.4v-1h.4c.5 0 .8.2.8.5s-.3.5-.8.5zm.1-3c-1.8 0-3.2 1.4-3.2 3.2 0 1.8 1.4 3.2 3.2 3.2 1.8 0 3.2-1.4 3.2-3.2 0-1.8-1.4-3.2-3.2-3.2zm0 5.8c-1.4 0-2.6-1.2-2.6-2.6 0-1.4 1.2-2.6 2.6-2.6 1.4 0 2.6 1.2 2.6 2.6 0 1.5-1.2 2.6-2.6 2.6zm-7-17.7H23.6C9.5 0 0 10.1 0 22.3c0 12.2 9.5 22.2 23.6 22.2h133.2c14.1 0 23.6-10 23.6-22.2S171 0 156.9 0zm-.1 39H23.6c-11.2 0-18-7.5-18-16.8S12.5 5.4 23.7 5.4h133.1c11.2 0 18.1 7.5 18.1 16.8S168 39 156.8 39z"/></svg>