<svg xmlns="http://www.w3.org/2000/svg" width="181" height="363"><path fill-rule="evenodd" d="M28.497 1.438l117.572.002c9.614 0 23.526-.135 30.369 12.788 2.261 4.269 3.206 10.242 3.206 13.505 0 4.999-.243 45.128-.138 49.562.342.126 1.022-.551 1.052.566.23 8.707-.24 30.552-.036 35.472.082 1.958-.476 1.704-.961 1.846 0 47.689.025 118.253.025 165.942 0 13.997-.036 30.318-.036 44.315 0 8.562.534 14.545-2.203 21.418-2.328 5.847-6.135 10.987-11.915 13.353-5.742 2.35-11.989 2.301-21.036 2.304-13.596-.1-27.167.018-41.333.018-1.313.024-2.893-.332-4.729-.332-4.1 0-9.143-.014-13.212-.015-1.73-.001-3.357.36-4.606.36-6.498 0-38.775-.017-45.273-.017-19.043 0-22.724-4.036-26.093-7.656-4.784-5.142-6.749-10.901-6.749-22.8 0-45.49.036-118.278.036-163.767 0-14.975-.118-30.815-.118-44.956 0-.198-.893-.15-.893-.532-.049-7.029-.04-15.598-.04-22.701 0-.21.353-.387 1.092-.75.012-.457-.115-5.36-.099-5.937.022-.818-.95-.37-.95-.972 0-1.985.043-21.643.043-22.333.003-1.296 1.06.004 1.06-.796 0-3.694-.143-8.736-.143-10.804-.203-.07-1.005-.155-1.005-.739 0-2.174.006-8.531.006-11.426 0-1.242.997-.135 1.192-.539 0-4.399-.14-9.083-.14-13.482 0-8.334.734-14.412 3.885-19.532 3.034-4.93 7.892-8.533 14.26-10.119 2.982-.86 5.345-1.002 7.91-1.246zm-2.396 9.746c-2.376 0-7.977 1.221-11.344 5.889-3.207 4.447-2.493 9.619-2.493 13.288 0 35.992-.533 100.268-.533 136.26 0 42.89.273 86.037.273 128.927 0 7.361-.32 20.954-.32 32.164 0 11.687.863 16.286 2.719 18.829 5.049 6.917 13.648 6.582 15.573 6.582 24.892 0 94.26-.282 119.152-.282 10.921 0 13.344-1.185 16.996-4.846 4.189-4.2 3.944-10.138 3.944-23.651v-53.093c0-69.284-.322-163.498-.322-232.783.001-14.84-.205-18.571-3.616-22.231-3.807-4.083-6.489-4.764-15.104-4.764-4.463 0-13.969-.124-17.513-.124-1.504 0-2.352.847-2.352 2.225 0 3.635-2.569 9.126-9.096 9.126-21.715 0-56.082-.076-61.755-.076-6.177 0-9.47-3.932-9.47-7.934 0-3.047-1.151-3.341-2.819-3.341-7.798 0-13.453-.165-21.92-.165z"/></svg>