<svg xmlns="http://www.w3.org/2000/svg" width="293" height="564"><path fill-rule="evenodd" d="M8.385 98.831c-1.356-.117-1.37.179-1.538-.46-.322-2.672-.243-18.701.136-20.475.348-.119.979-.362 1.424-.024-.034-9.824-.003-18.635.043-27.043.047-8.466 1.208-16.984 3.483-22.789 2.468-6.295 4.424-9.556 10.133-15.101 8.943-8.227 24.28-10.592 34.398-10.592 39.055 0 140.848-.007 179.903-.007 12.263 0 19.557 2.24 23.315 3.775 9.709 4.16 17.37 11.447 21.36 21.695 3.507 9.007 3.503 17.369 3.503 31.204 0 21.771-.013 50.162-.013 71.933.552.184 1.088.521 1.639.705 0 21.38-.09 42.464-.09 63.684-.551.368-1.029.429-1.58.797 0 88.28-.015 230.874-.015 319.155-.48 22.349-8.663 33.077-21.727 40.489-5.12 2.905-14.302 5.777-28.315 5.777-20.913 0-66.051-.087-71.883-.087-1.192.022.569-.377-9.298-.342-3.891.013-11.664-.024-17.247-.042-4.216-.05-5.63.411-6.502.415l-28.963.001c-14.05 0-30.238-.021-43.375-.021-14.567-.194-26.048-3.375-34.258-10.198-9.316-9.316-14.645-17.043-14.549-41.344.006-82.968.109-217.257.085-300.143-.551-.368-1.167-.941-1.718-1.308 0-13.045.147-25.955.147-39 .334-.68 1.03-.805 1.582-1.172 0-3.307-.074-6.692-.074-9.999-.551-.275-1.165-.157-1.537-.898l-.001-39.132c.199-.705.668-.442 1.568-.846 0-5.616-.034-11.639-.036-18.607zm44.678-80.397c-2.708 0-16.863.344-23.444 10.812-3.735 5.942-4.492 9.144-4.491 28.252v459.475c0 6.642 1.292 13.288 5.192 18.403 3.901 5.114 10.427 9.678 24.147 9.768 53.574-.092 132.874-.075 186.449-.167 6.766 0 12.549-1.63 16.933-4.973 2.801-2.136 4.876-4.644 6.708-7.832 3.103-5.4 3.507-9.55 3.507-20.3 0-23.875-.014-67.305-.014-91.19 0-56.743.108-135.497.108-202.15 0-51.681-.214-97.209-.214-104.083 0-15.605.128-41.952.128-61.159 0-17.776-2.576-20.486-4.658-23.837-4.782-7.696-13.753-10.729-22.614-10.729-4.9 0-18.502-.19-22.566-.19-3.664 0-3.774 2.091-3.774 5.456 0 4.59-3.205 9.664-7.559 12.307-2.462 1.248-5.045 1.838-14.424 1.838-20.492 0-78.011-.008-98.504-.008-6.149 0-9.719-2.558-11.984-5.535-2.849-3.744-3.321-6.897-3.321-8.925 0-2.962-.333-5.223-4.771-5.223-3.772 0-15.542-.01-20.834-.01z"/></svg>