<?xml version="1.0" encoding="utf-8"?>
<!-- Generator: Adobe Illustrator 21.1.0, SVG Export Plug-In . SVG Version: 6.00 Build 0)  -->
<svg version="1.1" id="Layer_1" xmlns="http://www.w3.org/2000/svg" xmlns:xlink="http://www.w3.org/1999/xlink" x="0px" y="0px"
	 width="258px" height="43px" viewBox="0 0 258 43" style="enable-background:new 0 0 258 43;" xml:space="preserve">
<style type="text/css">
	.st0{fill:#FFE5DB;}
</style>
<g>
	<g>
		<g>
			<path class="st0" d="M2.6,5.3c0-1.9,1.5-3.3,3.4-3.3c1.9,0,3.4,1.5,3.4,3.3c0,1.8-1.5,3.3-3.4,3.3C4.1,8.6,2.6,7.1,2.6,5.3z
				 M3,12.7h5.8V41H3V12.7z"/>
			<path class="st0" d="M30.1,2.2c7.5,0,12.8,5.2,12.8,12.7c0,7.6-5.3,12.8-13,12.8h-8.3V41h-6V2.2H30.1z M21.6,22.7h6.9
				c5.2,0,8.2-2.8,8.2-7.7c0-4.9-3-7.7-8.2-7.7h-6.9C21.6,7.3,21.6,22.7,21.6,22.7z"/>
			<path class="st0" d="M47,2.2h5.8v15.3h0.1c1.7-3.4,4.6-5.1,9-5.1c6.2,0,9.9,4.1,9.9,10.5V41h-5.8V24.1c0-4.2-2.1-6.7-6.2-6.7
				c-4.3,0-6.9,3-6.9,7.4V41H47L47,2.2L47,2.2z"/>
			<path class="st0" d="M75.9,26.9c0-8.9,5.2-14.5,13.4-14.5c8.2,0,13.4,5.6,13.4,14.5c0,8.9-5.2,14.5-13.4,14.5
				C81.1,41.3,75.9,35.8,75.9,26.9z M96.8,26.9c0-6.1-2.8-9.7-7.5-9.7c-4.7,0-7.5,3.6-7.5,9.7c0,6.1,2.8,9.7,7.5,9.7
				C94,36.6,96.8,33,96.8,26.9z"/>
			<path class="st0" d="M106.9,12.7h5.5v4.8h0.1c1.7-3.4,4.5-5.1,8.9-5.1c6.2,0,9.8,4,9.8,10.5V41h-5.8V24c0-4.2-2-6.6-6-6.6
				c-4.2,0-6.7,3-6.7,7.3V41h-5.8L106.9,12.7L106.9,12.7z"/>
			<path class="st0" d="M160.9,32.7c-0.8,5.1-5.8,8.7-12.2,8.7c-8.2,0-13.3-5.5-13.3-14.4c0-8.9,5.1-14.6,13.1-14.6
				c7.8,0,12.7,5.4,12.7,14v2h-20v0.3c0,4.8,3,8,7.6,8c3.2,0,5.8-1.5,6.5-4L160.9,32.7L160.9,32.7z M141.3,24.2h14.1
				c-0.1-4.3-2.9-7.2-6.9-7.2C144.5,17.1,141.6,20,141.3,24.2z"/>
			<path class="st0" d="M184.4,21.6v-0.2L171.7,2.2h7.2l9.6,15h0.2l9.7-15h6.8L192,21.6v0.2L204.9,41h-7l-9.7-14.8H188L178.2,41
				h-6.7L184.4,21.6z"/>
		</g>
	</g>
	<g>
		<path class="st0" d="M241.9,5.1l1.3,0c0.3,0,0.7,0,1.1,0c0.6,0,1.4,0.1,2.1,0.2c0.7,0.1,1.2,0.3,1.8,0.6c0.6,0.3,1.1,0.6,1.5,1.1
			c0.4,0.4,0.8,0.9,1.1,1.5c0.3,0.5,0.5,1.1,0.6,1.8c0.1,0.7,0.2,1.5,0.2,2.1c0,0.4,0,0.7,0,1l0,15l0,1.3c0,0.4,0,0.7,0,1.1
			c0,0.6-0.1,1.4-0.2,2.1c-0.1,0.7-0.3,1.2-0.6,1.8c-0.3,0.5-0.6,1.1-1.1,1.5c-0.4,0.4-0.9,0.8-1.5,1.1c-0.5,0.3-1.1,0.5-1.8,0.6
			c-0.7,0.1-1.5,0.2-2.1,0.2c-0.4,0-0.7,0-1,0l-1.3,0l-15,0c-0.4,0-0.7,0-1.1,0c-0.6,0-1.4-0.1-2.1-0.2c-0.7-0.1-1.3-0.3-1.8-0.6
			c-0.6-0.3-1.1-0.7-1.5-1.1c-0.4-0.4-0.8-0.9-1.1-1.5c-0.3-0.5-0.5-1.1-0.6-1.8c-0.1-0.7-0.2-1.5-0.2-2.1c0-0.4,0-0.7,0-1l0-15
			l0-1.3c0-0.4,0-0.7,0-1.1c0-0.6,0.1-1.4,0.2-2.1c0.1-0.7,0.3-1.2,0.6-1.8c0.3-0.6,0.7-1.1,1.1-1.5c0.4-0.4,0.9-0.8,1.5-1.1
			c0.5-0.3,1.1-0.5,1.8-0.6c0.7-0.1,1.5-0.2,2.1-0.2c0.4,0,0.7,0,1,0L241.9,5.1 M241.9,1.6l-15,0c-0.4,0-0.8,0-1.1,0
			c-0.8,0-1.7,0.1-2.7,0.2c-1,0.2-1.9,0.5-2.8,0.9c-0.9,0.5-1.7,1-2.4,1.7c-0.7,0.7-1.3,1.5-1.7,2.4c-0.4,0.9-0.7,1.8-0.9,2.8
			c-0.2,1-0.2,1.9-0.2,2.7c0,0.4,0,0.8,0,1.1l0,1.3l0,15c0,0.4,0,0.8,0,1.1c0,0.7,0.1,1.7,0.2,2.7c0.2,1,0.5,1.9,0.9,2.8
			c0.5,0.9,1,1.7,1.7,2.4c0.7,0.7,1.5,1.3,2.4,1.7c0.9,0.4,1.8,0.7,2.8,0.9c1,0.2,1.9,0.2,2.7,0.2c0.4,0,0.8,0,1.1,0l15,0l1.3,0
			c0.4,0,0.8,0,1.1,0c0.8,0,1.7-0.1,2.7-0.2c1-0.2,1.9-0.5,2.8-0.9c0.9-0.5,1.7-1,2.4-1.7c0.7-0.7,1.3-1.5,1.7-2.4
			c0.4-0.9,0.7-1.8,0.9-2.8c0.2-1,0.2-1.9,0.2-2.7c0-0.4,0-0.8,0-1.1l0-1.3l0-15c0-0.4,0-0.8,0-1.1c0-0.7-0.1-1.7-0.2-2.7
			c-0.2-1-0.5-1.9-0.9-2.8c-0.4-0.9-1-1.7-1.7-2.4c-0.7-0.7-1.5-1.3-2.4-1.7C248.9,2.3,248,2,247,1.8c-1-0.2-1.9-0.2-2.7-0.2
			c-0.4,0-0.8,0-1.1,0L241.9,1.6L241.9,1.6z"/>
		<g>
			<path class="st0" d="M230.9,25.9c0.3,1.8,2,2.9,4.4,2.9c2.4,0,4-1.2,4-2.8c0-1.4-1-2.3-3.5-2.8l-2.1-0.4
				c-3.9-0.8-5.7-2.6-5.7-5.5c0-3.4,3-5.8,7.2-5.8c4.3,0,7.2,2.4,7.2,5.8h-3.3c-0.2-1.8-1.7-2.9-3.9-2.9c-2.2,0-3.7,1-3.7,2.7
				c0,1.3,1,2.2,3.4,2.7l2.1,0.4c4.1,0.9,5.8,2.5,5.8,5.4c0,3.7-2.9,6.1-7.6,6.1c-4.5,0-7.5-2.2-7.7-5.8
				C227.6,25.9,230.9,25.9,230.9,25.9z"/>
		</g>
	</g>
</g>
</svg>
