<svg xmlns="http://www.w3.org/2000/svg" width="324" height="648"><path fill-rule="evenodd" d="M4.363 64.24c-.001-8.504-.299-17.753.724-24.87 2.99-14.06 8.327-23.619 18.725-30.141C37.343.741 58.359 1.88 80.42 1.88c36.088 0 72.221.017 108.309.017 20.248 0 40.502-.019 60.751-.019 13.21-.001 28.387-.679 38.819 1.765 7.321 2.132 12.895 4.71 17.769 8.995 7.131 6.27 10.793 13.378 13.373 22.856 1.114 7.278 1.616 16.484 1.616 25.4l.003 37.925c0 9.441-.019 18.886-.019 28.327 0 1.623-.08 8.87-.003 9.545.39.273.603.411.994.684 0 22.238-.014 45.02-.014 67.258-.507.312-.42.177-.986.362 0 3.006.087 7.658.087 10.994v20.953c0 22.277-.028 44.56-.028 66.837 0 71.083-.121 142.188-.121 213.271 0 20.833.076 41.673.076 62.506.002 21.435.519 36.298-8.417 48.922-5.328 7.524-10.247 9.951-19.863 14.656-3.195 1.816-9.157 2.416-11.93 3.052-3.07.705-22.719.007-32.37-.112-5.713-.07-30.727-.054-69.92-.023-2.953-.698-10.532-.107-16.278-.103-4.657.004-13.536-.499-15.715.135-23.585.016-49.867-.036-79.185-.036-7.097.001-22.848.263-26.146-.399-4.864-.976-7.935-1.757-11.748-3.397-11.412-5.135-18.927-13.584-22.931-26.247-2.497-7.895-2.265-18.356-2.266-28.605 0-13.031-.144-26.065-.144-39.096 0-78.379.122-156.911.122-235.29 0-23.213.279-46.447.279-69.66 0-5.891-.234-11.64-.234-17.531 0-1.445.035-5.646-.032-6.421-.468-.312-1.294-.615-1.762-.927 0-9.793-.009-19.38-.009-29.173 0-2.594-.067-10.169-.056-11.939.469-.195 1.422-.807 1.89-1.002 0-3.511.007-7.045.007-10.556-.649-.357-1.221-.641-1.872-1.045.039-13.694-.088-27.271-.049-40.965.585-.312 1.37-.612 2.025-.941-.056-1.695-.182-4.541-.108-6.499-.02-4.3-.167-8.686-.128-12.978-1.171.027-1.165-.256-1.761-.712 0-5.111-.099-15.929-.099-21.04 1.031-.924.934-.706 2.001-.743-.009-.793.016-5.231.016-16.641z"/></svg>