<svg xmlns="http://www.w3.org/2000/svg" width="465" height="1420"><path fill-rule="evenodd" d="M78.609 4.479c20.98-.409 36.094 4.362 51.746 9.112 14.763 4.89 31.845 9.878 47.064 14.598C232.28 45.18 344.444 80.156 399.304 97.147c3.588 1.673 23.489 6.48 39.556 27.736 23.73 32.141 25.174 91.057 25.173 147.775 0 76.813-.013 153.633-.013 230.446 0 287.075-.088 916.875-.088 916.875l-462.449.034s-.012-686.232-.012-1042.922c0-69.261-.049-138.79-.049-208.051-.003-47.138-.601-94.133 16.859-123.798 9.272-15.753 18.899-26.72 36.288-34.638 6.106-2.162 11.562-4.871 24.04-6.125z"/></svg>