<svg xmlns="http://www.w3.org/2000/svg" width="173" height="344"><path fill-rule="evenodd" d="M29.873.496C62.066.496 106.381.46 138.574.46c9.857 0 23.091.509 29.609 13.539 2.033 4.065 3.227 10.392 3.227 16.363 0 5.636-.256 43.59-.256 49.226 0 .538 1.041.012 1.041.871 0 3.661-.072 13.48-.072 35.899 0 2.533.36 2.185-.873 2.485 0 43.94.019 103.082.019 147.023 0 12.838-.048 24.58-.048 37.418 0 8.604.523 17.316-1.929 23.551-5.86 14.899-20.757 16.21-27.365 16.21-13.569 0-31.514-.008-42.212-.008h-2.891c-.823 0-1.663-.361-2.519-.361h-14.13c-.856 0-1.718.361-2.585.361H32.561c-10.268 0-17.621-1.531-24.292-9.136-5.386-6.141-5.938-14.584-5.938-20.962 0-76.536-.01-212.147-.01-185.582-.717-.319-.958-.347-.958-.677 0-8.329.018-15.89.018-23.49 0-.375.816-.429.815-.722 0-1.432.22-4.832.216-6.228.001.356-.89-.308-.96-1.224.021-6.638-.03-17.581-.03-23.256 0-.396.858-.566 1.021-.642 0-2.087.024-8.637-.045-11.521-.548-.39-1.476-.025-1.472-.584.032-4.764.011-9.868.011-11.811 0-.531.856-.516 1.482-.516 0-4.383.037-14.189.037-18.572.034-8.336 1.967-15.768 7.967-20.738C15.302 3.333 22.004.517 29.873.496zm-.803 9.984c-4.126 0-10.484 1.546-13.711 6.018-1.196 1.657-3.168 3.438-3.168 12.939v283.135c0 9.469 1.128 11.967 4.266 15.575 4.625 5.317 11.352 4.84 24.318 4.84l104.011-.002c6.512 0 12.861-3.42 14.945-8.423 1.927-4.626 1.563-11.294 1.563-21.295v-41.788V26.691c0-10.749-7.467-16.211-17.361-16.211-2.495 0-9.213-.005-12.824-.005-1.562 0-2.53 1.088-2.53 2.137 0 5.479-3.179 9.297-8.423 9.785-18.545.104-44.623-.017-63.168-.017-5.65 0-6.353-.427-8.558-2.087-2.427-1.828-2.99-3.42-2.99-7.188 0-1.087-.554-2.625-3.6-2.625-5.001-.105-7.769.105-12.77 0z"/></svg>