<svg xmlns="http://www.w3.org/2000/svg" width="169" height="333"><path fill-rule="evenodd" d="M29.298 3.952c30.869 0 73.364-.004 104.233-.004 9.451 0 21.904.634 28.154 13.124 1.95 3.896 2.831 9.603 2.831 15.325l.001 47.345c0 .515 1.012-.394 1.012.429 0 3.51-.026 13.109-.026 34.598 0 2.428.912 2.795-.913 3.411-.002 42.118-.002 97.85-.002 139.967 0 12.305-.024 23.696-.024 36.001 0 8.247.733 16.614-1.618 22.59-5.619 14.281-19.627 15.763-25.963 15.763-13.011 0-30.301.079-40.559.079-.898 0-1.973-.463-2.922-.463-.789 0-1.752-.101-2.573-.101-4.188 0-8.446.102-13.221.102-.821 0-2.107.446-2.939.446-14.96 0-31.085-.077-42.863-.077-9.846 0-17.063-1.638-23.459-8.928-5.165-5.886-5.488-14.039-5.488-20.152 0-73.36-.091-203.205-.091-177.742-.686-.306-.963-.417-.963-.733 0-7.983-.028-15.519-.028-22.804 0-.359 1.044-.101 1.044-.382 0-1.372.047-3.987.023-6.201-.166.105-1.337-.027-1.011-.484.149-6.684.03-17.578.03-23.017 0-.379.801-.169.957-.242 0-2.001.016-7.957.016-10.74-.526-.373-1.436-.25-1.432-.606.047-4.567-.015-9.48-.015-11.342 0-.509.874-.65 1.474-.65 0-4.202.007-14.123.007-18.325.033-7.99 2.515-15.238 8.268-20.003 4.679-3.874 9.153-5.338 18.06-6.184zm-.937 9.495c-5.791.391-10.223 1.577-12.972 5.68-1.091 1.627-2.894 3.601-2.894 12.708 0 33.814.07 97.592.07 131.406 0 37.116-.379 102.559-.379 139.675 0 9.076 1.329 11.8 4.338 15.258 4.435 5.097 10.803 4.655 23.235 4.654l99.732-.001c6.244 0 12.204-3.459 14.202-8.254 1.848-4.434 1.334-11.07 1.334-20.656 0-13.706.623-26.268.623-39.974 0-75.431-.721-149.697-.721-225.128 0-10.303-6.918-15.205-16.405-15.205-2.392 0-8.685-.257-12.147-.257-1.497 0-2.426 1.043-2.426 2.048 0 5.252-3.114 9.38-8.077 9.38-17.782.1-42.787-.016-60.569-.016-5.417 0-6.227-.249-8.341-1.84-2.327-1.753-3.16-3.507-3.16-7.119 0-1.042-.103-2.356-3.024-2.356-4.795-.1-7.449.009-12.419-.003z"/></svg>