<svg xmlns="http://www.w3.org/2000/svg" width="704" height="196"><path fill-rule="evenodd" d="M546.018 8.893c19.635-.001 39.904-.581 53.013 6.111 11.86 6.584 18.427 23.141 27.011 35.026l28.151 44.282c3.443 5.502 8.382 13.476 5.756 23.751-5.385 21.069-29.202 21.55-55.731 21.548-35.212 0-70.31-.123-105.521-.123-102.576 0-205.257.064-307.833.064-28.57 0-75.313-.101-103.883-.004-8.149-.331-18.761.568-31.115-4.762-10.043-4.333-19.236-16.395-13.318-31.394 2.837-7.191 7.4-13.007 11.308-19.202l24.355-38.272c5.764-9.15 14.048-23.227 20.582-28.66 7.896-5.837 23.317-7.963 29.388-8.212 67.248-.194 341.436-.186 417.837-.153z"/></svg>