<svg xmlns="http://www.w3.org/2000/svg" width="278" height="551"><path fill-rule="evenodd" d="M47.93 1.883l173.562-.002c15.735 0 37.607 1.514 48.011 22.278 3.247 6.478 4.57 16.024 4.57 25.538v78.099c0 .857 1.526.096 1.526 1.465 0 5.834.022 21.473.022 57.199 0 4.036.42 4.533-1.548 5.011V486.078c0 13.711.638 27.986-3.277 37.92-9.355 23.742-34.552 25.154-43.952 25.175-21.661.05-50.307-.012-67.385-.012-1.495 0-2.333.311-3.913.311-1.279-.205-3.357-.519-4.723-.52-7.003-.005-14.646-.009-22.556 0-1.367.002-4.94-.14-6.418.183-24.906 0-49.984.026-69.592.026-16.359-.794-27.647-2.177-38.529-13.937-8.393-9.816-9.702-22.06-9.857-28.938 0-121.959-.171-343.822-.171-301.491-1.144-.507-1.414-.941-1.414-1.466 0-13.273-.008-25.58-.008-37.691 0-.596 1.46-.579 1.46-1.045-.001-2.282.008-7.705.001-9.929-.001-.552-1.38-.444-1.381-.989-.002-1.369.067-2.663.071-3.985.033-10.577-.029-24.822-.029-33.865 0-.63 1.11-.882 1.371-1.004 0-3.326.048-13.389.048-18.015-.875-.621-1.978-.213-1.978-1.73 0-7.591.041-14.71.041-17.805 0-.848.88-1.371 1.879-1.371 0-6.985.424-28.695.424-35.68 1.997-12.34 4.038-19.361 12.693-27.617 8.008-6.663 16.3-10.091 31.052-10.72zm-4.96 16.183c-6.898.092-13.081 2.431-18.174 9.539-1.898 2.649-5.057 5.478-5.057 20.618v218.295c.002 61.699.216 172.159.206 233.885-.206 15.59 1.595 19.571 6.604 25.32 7.383 8.474 18.511 7.247 39.209 7.246 52.224 0 113.432-.19 165.622.068 10.396 0 20.559-5.054 23.887-13.027 3.076-7.371 2.806-17.996 2.806-33.932v-68.363V43.848c0-17.129-10.329-25.743-27.709-25.844-3.982-.024-15.695-.087-21.571.105-2.949.096-3.256 1.632-3.256 3.303 0 8.731-5.619 15.271-13.881 15.271-29.604.167-69.798.262-99.402.262-9.019 0-10.845-.666-14.364-3.311-3.875-2.913-5.302-5.552-5.302-11.556 0-1.732-.1-4.094-4.962-4.094-7.984-.166-16.607-.072-24.656.082z"/></svg>