<svg xmlns="http://www.w3.org/2000/svg" width="1114" height="320"><path fill-rule="evenodd" d="M866.5 15.472c31.038-.001 63.079-.919 83.801 9.66C969.05 35.54 979.43 61.713 993 80.5l44.5 70c5.442 8.697 13.25 21.302 9.098 37.545-8.512 33.305-46.161 34.066-88.098 34.063-55.661 0-111.143-.196-166.804-.196-162.151 0-324.466.102-486.616.102-45.163 0-119.054-.159-164.216-.006-12.882-.523-29.657.898-49.186-7.528-15.876-6.85-30.408-25.917-21.053-49.626C75.11 153.486 82.323 144.293 88.5 134.5L127 74c9.111-14.465 22.207-36.716 32.535-45.306 12.483-9.226 36.861-12.587 46.457-12.98 106.303-.307 539.734-.295 660.508-.242z"/></svg>