<svg xmlns="http://www.w3.org/2000/svg" width="790" height="1572"><path fill-rule="evenodd" d="M8.291 152.493c-.002-20.679-.335-43.491 2.154-60.796 7.272-34.193 20.39-57.117 45.675-72.979C89.024-1.923 140.131.629 193.778.63c87.758 0 175.542.075 263.3.075 49.239 0 98.375-.159 147.614-.159 32.125-.002 69.017-1.353 94.384 4.59 17.805 5.183 31.36 11.452 43.212 21.874 17.34 15.247 26.247 32.532 32.521 55.579 2.706 17.7 4.08 40.087 4.079 61.768 0 30.739.008 61.427.008 92.166 0 22.959-.008 45.985-.008 68.945 0 3.948.165 22.572-.058 24.091.948.664 2.123.866 3.072 1.53 0 54.078.058 107.949.058 162.027-1.234.759-1.955 1.28-3.331 1.731 0 7.31.26 18.556.259 26.669v213.486c0 172.859-.362 345.77-.362 518.629 0 50.663.32 101.34.32 152.002.003 52.124 1.128 88.268-20.605 118.967-12.954 18.298-24.917 24.84-48.301 36.279-6.817 1.545-16.521 4.041-23.263 5.589-7.465 1.714-60.996 2.553-84.465 2.265-13.893-.171-74.722-.206-170.031-.133-7.181-1.697-25.612-.886-39.586-.876-11.323.009-32.916-.587-38.214.956-57.353.038-121.046.14-192.342.14-17.258.001-55.748-1.136-63.768-2.746-11.828-2.375-19.11-3.992-28.383-7.98-27.752-12.488-46.025-33.034-55.763-63.827-6.071-19.199-5.895-44.638-5.896-69.562 0-31.688.037-63.385.037-95.073V757.774c0-56.45-.134-112.916-.134-169.366 0-14.326-.038-28.656-.038-42.982 0-3.512.343-13.728.181-15.614-1.139-.759-3.013-1.427-4.151-2.186 0-23.814.164-47.197.164-71.01 0-6.308-.028-25.035 0-29.34 1.138-.474 2.989-1.641 4.127-2.115 0-8.538-.028-17.075-.028-25.614-1.577-.868-2.7-1.63-4.281-2.612.094-33.301-.11-66.595-.015-99.896 1.423-.759 2.736-1.494 4.327-2.292-.136-4.124-.435-10.8-.255-15.562-.049-10.456.184-21.084.279-31.52-2.846.065-3.367-.509-4.816-1.62 0-12.428-.06-38.685-.06-51.114 2.508-2.246 2.326-1.376 4.92-1.467-.021-1.929-.195-13.223-.195-40.971z"/></svg>